<?xml version="1.0" encoding="utf-8"?>
<!-- Generator: Adobe Illustrator 27.5.0, SVG Export Plug-In . SVG Version: 6.00 Build 0)  -->
<svg version="1.1" xmlns="http://www.w3.org/2000/svg" xmlns:xlink="http://www.w3.org/1999/xlink" x="0px" y="0px"
	 viewBox="0 0 2500 2500" style="enable-background:new 0 0 2500 2500;" xml:space="preserve">
<g id="Background">
	<rect style="fill:#FFFFFF;" width="2500" height="2500"/>
</g>
<g id="Illustration">
	<g id="Building_investment_1_">
		<circle style="fill:#F2E6DC;" cx="1250" cy="1250" r="915"/>
		<g>
			<path style="fill:#E6D0BE;" d="M1490.503,385.781h-59.978v95.154h-200.653v-95.154h-59.976v95.154H969.242v-95.154h-59.978
				v1307.862h59.978v-54.615h200.653v54.615h59.976v-54.615h200.653v54.615h59.978v-54.615V385.781z M1169.895,1470.8H969.242
				v-182.52h200.653V1470.8z M1169.895,1230.489H969.242V1047.97h200.653V1230.489z M1169.895,990.179H969.242V807.66h200.653
				V990.179z M1169.895,749.869H969.242V566.596h200.653V749.869z M1430.525,1470.8h-200.653v-182.52h200.653V1470.8z
				 M1430.525,1230.489h-200.653V1047.97h200.653V1230.489z M1430.525,990.179h-200.653V807.66h200.653V990.179z M1430.525,749.869
				h-200.653V566.596h200.653V749.869z"/>
			<rect x="860.375" y="1428.591" style="fill:#E6D0BE;" width="634.362" height="315.289"/>
		</g>
		<g>
			<polygon style="fill:#776E42;" points="342.364,1918.974 1069.228,1915.932 1069.228,554.24 342.364,554.24 			"/>
			
				<rect x="454.577" y="554.24" transform="matrix(-1 -1.224647e-16 1.224647e-16 -1 1571.5688 2473.2139)" style="fill:#8B865C;" width="662.415" height="1364.734"/>
			<polygon style="fill:#EFBC73;" points="496.931,609.205 1117.743,609.205 1128.95,554.38 496.98,554.24 			"/>
			<g>
				<g>
					
						<rect x="912.29" y="1180.324" transform="matrix(-1 -1.224647e-16 1.224647e-16 -1 1985.7136 2507.7485)" style="fill:#F7F1EB;" width="161.133" height="147.1"/>
					<g>
						<path style="fill:#8B865C;" d="M995.992,1339.799c-1.219,0-2.205-0.986-2.205-2.205v-167.441c0-1.219,0.986-2.205,2.205-2.205
							s2.205,0.986,2.205,2.205v167.441C998.196,1338.813,997.21,1339.799,995.992,1339.799z"/>
						<path style="fill:#8B865C;" d="M1087.698,1256.079H904.283c-1.219,0-2.205-0.986-2.205-2.205c0-1.219,0.986-2.205,2.205-2.205
							h183.416c1.219,0,2.205,0.986,2.205,2.205C1089.903,1255.093,1088.917,1256.079,1087.698,1256.079z"/>
					</g>
				</g>
				<g>
					
						<rect x="704.61" y="1180.324" transform="matrix(-1 -1.224647e-16 1.224647e-16 -1 1570.3545 2507.7485)" style="fill:#F7F1EB;" width="161.133" height="147.1"/>
					<g>
						<path style="fill:#8B865C;" d="M787.948,1339.799c-1.219,0-2.205-0.986-2.205-2.205v-167.441c0-1.219,0.986-2.205,2.205-2.205
							c1.219,0,2.205,0.986,2.205,2.205v167.441C790.153,1338.813,789.167,1339.799,787.948,1339.799z"/>
						<path style="fill:#8B865C;" d="M879.655,1256.079H696.239c-1.219,0-2.205-0.986-2.205-2.205c0-1.219,0.986-2.205,2.205-2.205
							h183.416c1.219,0,2.205,0.986,2.205,2.205C881.86,1255.093,880.874,1256.079,879.655,1256.079z"/>
					</g>
				</g>
				<g>
					
						<rect x="496.931" y="1180.324" transform="matrix(-1 -1.224647e-16 1.224647e-16 -1 1154.9955 2507.7485)" style="fill:#F7F1EB;" width="161.133" height="147.1"/>
					<g>
						<path style="fill:#8B865C;" d="M576.654,1339.799c-1.219,0-2.205-0.986-2.205-2.205v-167.441c0-1.219,0.986-2.205,2.205-2.205
							s2.205,0.986,2.205,2.205v167.441C578.859,1338.813,577.872,1339.799,576.654,1339.799z"/>
						<path style="fill:#8B865C;" d="M668.36,1256.079H484.945c-1.219,0-2.205-0.986-2.205-2.205c0-1.219,0.986-2.205,2.205-2.205
							H668.36c1.219,0,2.205,0.986,2.205,2.205C670.565,1255.093,669.579,1256.079,668.36,1256.079z"/>
					</g>
				</g>
				<g>
					
						<rect x="912.29" y="934.714" transform="matrix(-1 -1.224647e-16 1.224647e-16 -1 1985.7136 2016.528)" style="fill:#F7F1EB;" width="161.133" height="147.1"/>
					<g>
						<path style="fill:#8B865C;" d="M995.992,1094.19c-1.219,0-2.205-0.986-2.205-2.205V924.544c0-1.219,0.986-2.205,2.205-2.205
							s2.205,0.986,2.205,2.205v167.441C998.196,1093.204,997.21,1094.19,995.992,1094.19z"/>
						<path style="fill:#8B865C;" d="M1087.698,1010.469H904.283c-1.219,0-2.205-0.986-2.205-2.205s0.986-2.205,2.205-2.205h183.416
							c1.219,0,2.205,0.986,2.205,2.205S1088.917,1010.469,1087.698,1010.469z"/>
					</g>
				</g>
				<g>
					
						<rect x="704.61" y="934.714" transform="matrix(-1 -1.224647e-16 1.224647e-16 -1 1570.3545 2016.528)" style="fill:#F7F1EB;" width="161.133" height="147.1"/>
					<g>
						<path style="fill:#8B865C;" d="M787.948,1094.19c-1.219,0-2.205-0.986-2.205-2.205V924.544c0-1.219,0.986-2.205,2.205-2.205
							c1.219,0,2.205,0.986,2.205,2.205v167.441C790.153,1093.204,789.167,1094.19,787.948,1094.19z"/>
						<path style="fill:#8B865C;" d="M879.655,1010.469H696.239c-1.219,0-2.205-0.986-2.205-2.205s0.986-2.205,2.205-2.205h183.416
							c1.219,0,2.205,0.986,2.205,2.205S880.874,1010.469,879.655,1010.469z"/>
					</g>
				</g>
				<g>
					
						<rect x="496.931" y="934.714" transform="matrix(-1 -1.224647e-16 1.224647e-16 -1 1154.9955 2016.528)" style="fill:#F7F1EB;" width="161.133" height="147.1"/>
					<g>
						<path style="fill:#8B865C;" d="M576.654,1094.19c-1.219,0-2.205-0.986-2.205-2.205V924.544c0-1.219,0.986-2.205,2.205-2.205
							s2.205,0.986,2.205,2.205v167.441C578.859,1093.204,577.872,1094.19,576.654,1094.19z"/>
						<path style="fill:#8B865C;" d="M668.36,1010.469H484.945c-1.219,0-2.205-0.986-2.205-2.205s0.986-2.205,2.205-2.205H668.36
							c1.219,0,2.205,0.986,2.205,2.205S669.579,1010.469,668.36,1010.469z"/>
					</g>
				</g>
				<g>
					
						<rect x="912.29" y="689.104" transform="matrix(-1 -1.224647e-16 1.224647e-16 -1 1985.7136 1525.3075)" style="fill:#F7F1EB;" width="161.133" height="147.1"/>
					<g>
						<path style="fill:#8B865C;" d="M995.992,848.579c-1.219,0-2.205-0.986-2.205-2.205V678.933c0-1.219,0.986-2.205,2.205-2.205
							s2.205,0.986,2.205,2.205v167.441C998.196,847.593,997.21,848.579,995.992,848.579z"/>
						<path style="fill:#8B865C;" d="M1087.698,764.858H904.283c-1.219,0-2.205-0.986-2.205-2.205c0-1.219,0.986-2.205,2.205-2.205
							h183.416c1.219,0,2.205,0.986,2.205,2.205C1089.903,763.872,1088.917,764.858,1087.698,764.858z"/>
					</g>
				</g>
				<g>
					
						<rect x="704.61" y="689.104" transform="matrix(-1 -1.224647e-16 1.224647e-16 -1 1570.3545 1525.3075)" style="fill:#F7F1EB;" width="161.133" height="147.1"/>
					<g>
						<path style="fill:#8B865C;" d="M787.948,848.579c-1.219,0-2.205-0.986-2.205-2.205V678.933c0-1.219,0.986-2.205,2.205-2.205
							c1.219,0,2.205,0.986,2.205,2.205v167.441C790.153,847.593,789.167,848.579,787.948,848.579z"/>
						<path style="fill:#8B865C;" d="M879.655,764.858H696.239c-1.219,0-2.205-0.986-2.205-2.205c0-1.219,0.986-2.205,2.205-2.205
							h183.416c1.219,0,2.205,0.986,2.205,2.205C881.86,763.872,880.874,764.858,879.655,764.858z"/>
					</g>
				</g>
				<g>
					
						<rect x="496.931" y="689.104" transform="matrix(-1 -1.224647e-16 1.224647e-16 -1 1154.9955 1525.3075)" style="fill:#F7F1EB;" width="161.133" height="147.1"/>
					<g>
						<path style="fill:#8B865C;" d="M576.654,848.579c-1.219,0-2.205-0.986-2.205-2.205V678.933c0-1.219,0.986-2.205,2.205-2.205
							s2.205,0.986,2.205,2.205v167.441C578.859,847.593,577.872,848.579,576.654,848.579z"/>
						<path style="fill:#8B865C;" d="M668.36,764.858H484.945c-1.219,0-2.205-0.986-2.205-2.205c0-1.219,0.986-2.205,2.205-2.205
							H668.36c1.219,0,2.205,0.986,2.205,2.205C670.565,763.872,669.579,764.858,668.36,764.858z"/>
					</g>
				</g>
				<g>
					
						<rect x="912.29" y="1427.229" transform="matrix(-1 -1.224647e-16 1.224647e-16 -1 1985.7136 3001.5576)" style="fill:#F7F1EB;" width="161.133" height="147.1"/>
					<g>
						<path style="fill:#8B865C;" d="M995.992,1585.411c-1.219,0-2.205-0.986-2.205-2.205v-167.441c0-1.219,0.986-2.205,2.205-2.205
							s2.205,0.986,2.205,2.205v167.441C998.196,1584.425,997.21,1585.411,995.992,1585.411z"/>
						<path style="fill:#8B865C;" d="M1087.698,1501.69H904.283c-1.219,0-2.205-0.986-2.205-2.205s0.986-2.205,2.205-2.205h183.416
							c1.219,0,2.205,0.986,2.205,2.205S1088.917,1501.69,1087.698,1501.69z"/>
					</g>
				</g>
				<g>
					
						<rect x="704.61" y="1427.229" transform="matrix(-1 -1.224647e-16 1.224647e-16 -1 1570.3545 3001.5576)" style="fill:#F7F1EB;" width="161.133" height="147.1"/>
					<g>
						<path style="fill:#8B865C;" d="M787.948,1585.411c-1.219,0-2.205-0.986-2.205-2.205v-167.441c0-1.219,0.986-2.205,2.205-2.205
							c1.219,0,2.205,0.986,2.205,2.205v167.441C790.153,1584.425,789.167,1585.411,787.948,1585.411z"/>
						<path style="fill:#8B865C;" d="M879.655,1501.69H696.239c-1.219,0-2.205-0.986-2.205-2.205s0.986-2.205,2.205-2.205h183.416
							c1.219,0,2.205,0.986,2.205,2.205S880.874,1501.69,879.655,1501.69z"/>
					</g>
				</g>
				<g>
					
						<rect x="496.931" y="1427.229" transform="matrix(-1 -1.224647e-16 1.224647e-16 -1 1154.9955 3001.5576)" style="fill:#F7F1EB;" width="161.133" height="147.1"/>
					<g>
						<path style="fill:#8B865C;" d="M576.654,1585.411c-1.219,0-2.205-0.986-2.205-2.205v-167.441c0-1.219,0.986-2.205,2.205-2.205
							s2.205,0.986,2.205,2.205v167.441C578.859,1584.425,577.872,1585.411,576.654,1585.411z"/>
						<path style="fill:#8B865C;" d="M668.36,1501.69H484.945c-1.219,0-2.205-0.986-2.205-2.205s0.986-2.205,2.205-2.205H668.36
							c1.219,0,2.205,0.986,2.205,2.205S669.579,1501.69,668.36,1501.69z"/>
					</g>
				</g>
			</g>
			<polygon style="fill:#E0AA63;" points="496.931,609.205 496.269,605.896 496.931,554.24 520.249,554.163 			"/>
			
				<rect x="496.931" y="609.205" transform="matrix(-1 -1.224647e-16 1.224647e-16 -1 1613.9229 1253.0261)" style="fill:#E0AA63;" width="620.061" height="34.616"/>
			<rect x="854.334" y="1676.4" style="fill:#776E42;" width="145.511" height="244.723"/>
		</g>
		<g>
			<g>
				<path style="fill:#84524D;" d="M1550.415,690.568h-112.883c-1.219,0-2.205-0.986-2.205-2.205V570.718
					c0-1.219,0.986-2.205,2.205-2.205h112.883c1.219,0,2.205,0.986,2.205,2.205v117.646
					C1552.62,689.582,1551.634,690.568,1550.415,690.568z M1439.737,686.159h108.473V572.923h-108.473V686.159z"/>
				<path style="fill:#84524D;" d="M1437.532,660.53c-0.168,0-0.336-0.019-0.502-0.058l-201.842-47.173
					c-0.997-0.233-1.703-1.122-1.703-2.147v-22.668c0-1.219,0.986-2.205,2.205-2.205h201.842c1.219,0,2.205,0.986,2.205,2.205
					v69.841c0,0.674-0.308,1.309-0.835,1.727C1438.51,660.364,1438.025,660.53,1437.532,660.53z M1237.895,609.403l197.432,46.142
					v-64.857h-197.432V609.403z"/>
				<path style="fill:#84524D;" d="M1228.708,625.61h-23.562c-1.219,0-2.205-0.986-2.205-2.205v-34.922
					c0-1.219,0.986-2.205,2.205-2.205h23.562c1.219,0,2.205,0.986,2.205,2.205v34.922
					C1230.912,624.624,1229.926,625.61,1228.708,625.61z M1207.35,621.201h19.152v-30.512h-19.152V621.201z"/>
				<path style="fill:#84524D;" d="M1216.926,676.297c-8.587,0-15.572-6.976-15.572-15.552c0-1.219,0.986-2.205,2.205-2.205
					s2.205,0.986,2.205,2.205c0,6.145,5.008,11.143,11.162,11.143c6.154,0,11.162-4.997,11.162-11.143
					c0-6.145-5.008-11.145-11.162-11.145c-1.219,0-2.205-0.986-2.205-2.205v-19.908c0-1.219,0.986-2.205,2.205-2.205
					c1.219,0,2.205,0.986,2.205,2.205v17.858c7.547,1.074,13.367,7.57,13.367,15.399
					C1232.497,669.321,1225.512,676.297,1216.926,676.297z"/>
				<path style="fill:#84524D;" d="M1509.182,1129.252c-1.219,0-2.205-0.986-2.205-2.205V688.364c0-1.219,0.986-2.205,2.205-2.205
					h92.088c1.219,0,2.205,0.986,2.205,2.205v372.01c0,1.219-0.986,2.205-2.205,2.205c-1.219,0-2.205-0.986-2.205-2.205V690.568
					h-87.678v436.479C1511.387,1128.266,1510.401,1129.252,1509.182,1129.252z"/>
				<path style="fill:#84524D;" d="M1527.409,648.279h-66.872c-1.219,0-2.205-0.986-2.205-2.205v-45.337
					c0-1.219,0.986-2.205,2.205-2.205h66.872c1.219,0,2.205,0.986,2.205,2.205v45.337
					C1529.614,647.292,1528.628,648.279,1527.409,648.279z M1462.741,643.869h62.463v-40.927h-62.463V643.869z"/>
				<path style="fill:#84524D;" d="M1601.27,1000.137c-0.603,0-1.201-0.245-1.636-0.728l-92.088-102.126
					c-0.756-0.838-0.758-2.106-0.009-2.945l90.785-101.607l-90.794-102.909c-0.805-0.913-0.719-2.306,0.196-3.111
					c0.911-0.805,2.304-0.719,3.111,0.196l92.088,104.376c0.739,0.835,0.734,2.095-0.009,2.926l-90.77,101.592l90.761,100.655
					c0.816,0.904,0.745,2.3-0.159,3.113C1602.325,999.949,1601.798,1000.137,1601.27,1000.137z"/>
				<path style="fill:#84524D;" d="M1509.182,1103.365c-0.523,0-1.048-0.185-1.468-0.56c-0.909-0.812-0.986-2.207-0.177-3.114
					l92.088-103.067c0.816-0.913,2.207-0.986,3.114-0.177c0.909,0.812,0.986,2.207,0.177,3.113l-92.088,103.067
					C1510.39,1103.117,1509.788,1103.365,1509.182,1103.365z"/>
				<path style="fill:#84524D;" d="M1601.27,794.944h-92.088c-1.219,0-2.205-0.986-2.205-2.205c0-1.219,0.986-2.205,2.205-2.205
					h92.088c1.219,0,2.205,0.986,2.205,2.205C1603.475,793.958,1602.489,794.944,1601.27,794.944z"/>
				<path style="fill:#84524D;" d="M1601.27,898.151h-92.088c-1.219,0-2.205-0.986-2.205-2.205s0.986-2.205,2.205-2.205h92.088
					c1.219,0,2.205,0.986,2.205,2.205S1602.489,898.151,1601.27,898.151z"/>
				<path style="fill:#84524D;" d="M1600.646,1000.137h-91.463c-1.219,0-2.205-0.986-2.205-2.205c0-1.219,0.986-2.205,2.205-2.205
					h91.463c1.219,0,2.205,0.986,2.205,2.205C1602.851,999.151,1601.865,1000.137,1600.646,1000.137z"/>
			</g>
			<g>
				<path style="fill:#84524D;" d="M1362.306,799.582c-0.581,0-1.161-0.228-1.593-0.682l-126.616-132.522
					c-0.842-0.881-0.81-2.276,0.071-3.116c0.881-0.844,2.274-0.812,3.116,0.071l126.616,132.522c0.842,0.881,0.81,2.276-0.071,3.116
					C1363.402,799.38,1362.853,799.582,1362.306,799.582z"/>
				<path style="fill:#84524D;" d="M1071.545,799.582c-0.547,0-1.096-0.202-1.522-0.611c-0.88-0.84-0.913-2.235-0.071-3.116
					l126.616-132.522c0.84-0.878,2.237-0.913,3.116-0.071c0.881,0.84,0.913,2.235,0.071,3.116l-126.616,132.522
					C1072.706,799.354,1072.127,799.582,1071.545,799.582z"/>
				<rect x="1042.791" y="791.851" style="fill:#B77250;" width="344.757" height="32.485"/>
			</g>
			<path style="fill:#84524D;" d="M1550.415,690.568c-0.943,0-1.817-0.609-2.108-1.559c-0.357-1.163,0.297-2.397,1.462-2.754
				l235.653-72.315v-24.275h-235.007c-1.219,0-2.205-0.986-2.205-2.205c0-1.219,0.986-2.205,2.205-2.205h237.212
				c1.219,0,2.205,0.986,2.205,2.205v28.109c0,0.969-0.633,1.824-1.559,2.108l-237.212,72.794
				C1550.846,690.538,1550.628,690.568,1550.415,690.568z"/>
			<path style="fill:#84524D;" d="M1827.762,648.279h-12.902c-0.583,0-1.146-0.233-1.559-0.644l-24.464-24.432
				c-0.861-0.861-0.861-2.256-0.002-3.12c0.861-0.861,2.259-0.859,3.12-0.002l23.818,23.788h9.784v-66.366h-35.161
				c-1.219,0-2.205-0.986-2.205-2.205c0-1.219,0.986-2.205,2.205-2.205h37.366c1.219,0,2.205,0.986,2.205,2.205v70.776
				C1829.967,647.292,1828.98,648.279,1827.762,648.279z"/>
		</g>
		<g>
			<g>
				<rect x="1466.512" y="1073.431" style="fill:#FFFFFF;" width="602.633" height="428.027"/>
				<path style="fill:#84524D;" d="M2066.623,1518.185h-440.695c-1.219,0-2.205-0.986-2.205-2.205s0.986-2.205,2.205-2.205h438.49
					V1078.58h-594.733l-0.665,172.531c-0.004,1.214-0.99,2.196-2.205,2.196c-0.002,0-0.006,0-0.009,0
					c-1.217-0.004-2.201-0.995-2.196-2.214l0.674-174.728c0.004-1.214,0.99-2.196,2.205-2.196h599.134
					c1.219,0,2.205,0.986,2.205,2.205v439.605C2068.828,1517.199,2067.842,1518.185,2066.623,1518.185z"/>
				<polygon style="fill:#EFBC73;" points="2069.145,1073.431 1464.307,1073.431 1464.307,1111.415 2069.145,1111.415 
					2069.145,1073.431 				"/>
				
					<ellipse transform="matrix(0.1602 -0.9871 0.9871 0.1602 174.2344 2390.1646)" style="fill:#FFFFFF;" cx="1491.769" cy="1092.688" rx="8.639" ry="8.639"/>
				
					<ellipse transform="matrix(0.2298 -0.9732 0.9732 0.2298 107.0718 2320.6677)" style="fill:#FFFFFF;" cx="1519.682" cy="1092.688" rx="8.639" ry="8.639"/>
				
					<ellipse transform="matrix(0.2298 -0.9732 0.9732 0.2298 128.5723 2347.8347)" style="fill:#FFFFFF;" cx="1547.596" cy="1092.688" rx="8.639" ry="8.639"/>
			</g>
			<g>
				<path style="fill:#E6D0BE;" d="M2035.09,1474.216h-523.63v-344.389c0-1.219,0.986-2.205,2.205-2.205s2.205,0.986,2.205,2.205
					v339.979h519.22c1.219,0,2.205,0.986,2.205,2.205C2037.295,1473.23,2036.309,1474.216,2035.09,1474.216z"/>
				<rect x="1570.456" y="1352.76" style="fill:#E6D0BE;" width="66.855" height="65.336"/>
				<rect x="1680.784" y="1300.919" style="fill:#E6D0BE;" width="66.855" height="117.177"/>
				<rect x="1791.112" y="1234.049" style="fill:#E6D0BE;" width="66.855" height="184.047"/>
				<rect x="1901.44" y="1175.539" style="fill:#E6D0BE;" width="66.855" height="242.557"/>
			</g>
			<path style="fill:#D87355;" d="M1989.36,1088.387l-51.954-173.069l-150.85,99.479l41.392,15.019
				c-10.641,36.371-32.002,87.223-75.949,134.328c-88.396,94.747-203.073,104.544-230.065,106.136
				c19.874,6.474,158.686,49.124,290.873-33.765c79.627-49.93,117.883-120.974,134.955-163.224L1989.36,1088.387z"/>
		</g>
		<g>
			<g>
				
					<ellipse transform="matrix(0.1476 -0.989 0.989 0.1476 815.2005 2539.2588)" style="fill:#E0AA63;" cx="1880.782" cy="796.681" rx="28.256" ry="89.234"/>
				
					<rect x="1793.555" y="768.681" transform="matrix(0.989 0.1476 -0.1476 0.989 136.2419 -269.3443)" style="fill:#E0AA63;" width="178.468" height="29.112"/>
				
					<ellipse transform="matrix(0.1476 -0.989 0.989 0.1476 845.6664 2520.0229)" style="fill:#EFBC73;" cx="1884.855" cy="769.388" rx="28.256" ry="89.234"/>
				<path style="fill:#FFFFFF;" d="M1928.77,803.97c-12.174,0-25.226-0.995-38.014-2.902c-23.792-3.553-45.75-9.838-61.828-17.701
					c-16.818-8.223-25.381-17.43-24.113-25.924c2.814-18.857,50.481-23.263,94.934-16.631c23.792,3.553,45.748,9.838,61.828,17.701
					c16.818,8.223,25.381,17.43,24.113,25.924C1983.686,797.87,1958.921,803.97,1928.77,803.97z M1861.191,742.188
					c-30.74,0-50.655,6.808-52.014,15.905c-0.947,6.341,6.957,14.109,21.687,21.312c15.686,7.672,37.185,13.815,60.542,17.3
					c51.497,7.685,88.066-0.478,89.922-12.919c0.947-6.341-6.959-14.11-21.689-21.312c-15.684-7.672-37.185-13.814-60.54-17.3
					C1885.259,743.109,1872.491,742.188,1861.191,742.188z"/>
			</g>
			<g>
				
					<ellipse transform="matrix(0.9828 -0.1848 0.1848 0.9828 -81.2348 379.6874)" style="fill:#E0AA63;" cx="1996.381" cy="625.663" rx="89.234" ry="28.256"/>
				
					<rect x="1904.635" y="597.749" transform="matrix(0.9828 -0.1848 0.1848 0.9828 -78.8093 378.9917)" style="fill:#E0AA63;" width="178.468" height="29.112"/>
				
					<ellipse transform="matrix(0.9828 -0.1848 0.1848 0.9828 -76.311 378.2775)" style="fill:#EFBC73;" cx="1991.282" cy="598.543" rx="89.234" ry="28.256"/>
				<path style="fill:#FFFFFF;" d="M1961.453,631.023c-26.49,0-47.417-5.366-49.703-17.527
					c-3.523-18.739,40.061-38.526,84.235-46.831c23.644-4.444,46.452-5.706,64.213-3.551c18.584,2.256,29.692,8.148,31.279,16.588
					c3.522,18.739-40.061,38.528-84.235,46.833C1991.736,629.451,1975.777,631.023,1961.453,631.023z M2041.776,566.493
					c-13.709,0-29.136,1.527-44.977,4.504c-51.161,9.62-83.04,29.319-80.717,41.685c2.328,12.363,39.183,19.144,90.346,9.521
					c51.161-9.62,83.04-29.322,80.717-41.687c-1.187-6.302-11.201-11.048-27.476-13.024
					C2054.165,566.825,2048.155,566.493,2041.776,566.493z"/>
			</g>
			<g>
				
					<ellipse transform="matrix(0.8596 -0.5109 0.5109 0.8596 -144.8251 1181.6403)" style="fill:#E0AA63;" cx="2078.094" cy="854.392" rx="89.234" ry="28.256"/>
				
					<rect x="1981.915" y="828.151" transform="matrix(0.8596 -0.5109 0.5109 0.8596 -139.8302 1176.4513)" style="fill:#E0AA63;" width="178.468" height="29.112"/>
				
					<ellipse transform="matrix(0.8596 -0.5109 0.5109 0.8596 -134.6841 1171.1079)" style="fill:#EFBC73;" cx="2063.995" cy="830.67" rx="89.234" ry="28.256"/>
				<path style="fill:#FFFFFF;" d="M2011.937,879.149c-8.335,0-14.566-2.181-17.509-7.133c-9.741-16.39,24.404-49.938,63.042-72.901
					c38.638-22.965,84.423-36.918,94.166-20.532c4.388,7.383-0.054,19.146-12.508,33.122
					c-11.909,13.362-29.855,27.489-50.534,39.779C2061.632,867.509,2031.184,879.149,2011.937,879.149z M2133.932,775.803
					c-15.959,0-43.212,8.679-74.21,27.102c-44.751,26.598-67.932,56.044-61.504,66.859c6.431,10.813,43.373,4.526,88.124-22.07
					c20.3-12.066,37.878-25.889,49.494-38.924c10.908-12.241,15.285-22.423,12.01-27.935
					C2145.869,777.512,2141.012,775.803,2133.932,775.803z"/>
			</g>
		</g>
		<g>
			<g>
				<polygon style="fill:#FFFFFF;" points="510.204,2037.709 813.362,1907.216 773.18,1813.867 750.484,1798.16 753.488,1768.118 
					735.946,1727.367 432.789,1857.86 450.33,1898.611 471.676,1913.648 470.022,1944.36 				"/>
				<path style="fill:#363E44;" d="M504.19,2049.045l-79.158-183.9l2.024-0.872L732.24,1732.91l79.156,183.9l-2.024,0.872
					L504.19,2049.045z M430.823,1867.453l75.674,175.8l299.106-128.752l-75.672-175.8L430.823,1867.453z"/>
				
					<rect x="446.73" y="1831.335" transform="matrix(-0.9185 0.3954 -0.3954 -0.9185 1907.5735 3319.3596)" style="fill:#363E44;" width="330.05" height="49.807"/>
			</g>
			<g>
				<g>
					<ellipse style="fill:#E0AA63;" cx="476.771" cy="2124.521" rx="101.316" ry="32.074"/>
					<rect x="375.455" y="2092.568" style="fill:#E0AA63;" width="202.633" height="33.046"/>
					<ellipse style="fill:#EFBC73;" cx="476.771" cy="2093.196" rx="101.316" ry="32.074"/>
					<path style="fill:#FFFFFF;" d="M488.707,2127.475c-58.049,0-103.521-15.057-103.521-34.28
						c0-19.221,45.472-34.278,103.521-34.278c58.049,0,103.521,15.057,103.521,34.278
						C592.227,2112.418,546.755,2127.475,488.707,2127.475z M488.707,2063.327c-59.287,0-99.111,15.445-99.111,29.868
						c0,14.426,39.825,29.871,99.111,29.871s99.111-15.445,99.111-29.871C587.818,2078.771,547.993,2063.327,488.707,2063.327z"/>
				</g>
				<g>
					<ellipse style="fill:#E0AA63;" cx="493.412" cy="2077.924" rx="101.316" ry="32.074"/>
					<rect x="392.096" y="2045.972" style="fill:#E0AA63;" width="202.633" height="33.045"/>
					<ellipse style="fill:#EFBC73;" cx="493.412" cy="2046.6" rx="101.316" ry="32.074"/>
					<path style="fill:#FFFFFF;" d="M486.342,2077.023c-58.049,0-103.521-15.057-103.521-34.278s45.472-34.278,103.521-34.278
						c58.049,0,103.521,15.057,103.521,34.278S544.391,2077.023,486.342,2077.023z M486.342,2012.876
						c-59.287,0-99.111,15.445-99.111,29.868c0,14.424,39.825,29.869,99.111,29.869s99.111-15.445,99.111-29.869
						C585.454,2028.321,545.629,2012.876,486.342,2012.876z"/>
				</g>
				<g>
					<ellipse style="fill:#E0AA63;" cx="476.771" cy="2020.106" rx="101.316" ry="32.074"/>
					<rect x="375.455" y="1988.154" style="fill:#E0AA63;" width="202.633" height="33.046"/>
					<ellipse style="fill:#EFBC73;" cx="476.771" cy="1988.781" rx="101.316" ry="32.074"/>
					<path style="fill:#FFFFFF;" d="M488.707,2023.061c-58.049,0-103.521-15.057-103.521-34.28
						c0-19.221,45.472-34.278,103.521-34.278c58.049,0,103.521,15.057,103.521,34.278
						C592.227,2008.004,546.755,2023.061,488.707,2023.061z M488.707,1958.912c-59.287,0-99.111,15.444-99.111,29.868
						c0,14.426,39.825,29.87,99.111,29.87s99.111-15.445,99.111-29.87C587.818,1974.357,547.993,1958.912,488.707,1958.912z"/>
				</g>
				<g>
					<ellipse style="fill:#E0AA63;" cx="509.595" cy="1973.677" rx="101.316" ry="32.074"/>
					<rect x="408.279" y="1941.725" style="fill:#E0AA63;" width="202.633" height="33.045"/>
					<ellipse style="fill:#EFBC73;" cx="509.595" cy="1942.353" rx="101.316" ry="32.074"/>
					<path style="fill:#FFFFFF;" d="M521.531,1976.63c-58.049,0-103.521-15.057-103.521-34.278
						c0-19.221,45.472-34.278,103.521-34.278c58.049,0,103.521,15.057,103.521,34.278
						C625.052,1961.573,579.58,1976.63,521.531,1976.63z M521.531,1912.484c-59.287,0-99.111,15.444-99.111,29.868
						s39.824,29.869,99.111,29.869c59.287,0,99.111-15.445,99.111-29.869S580.818,1912.484,521.531,1912.484z"/>
				</g>
			</g>
			<g>
				<g>
					<ellipse style="fill:#E0AA63;" cx="707.981" cy="2125.66" rx="101.316" ry="32.074"/>
					<rect x="606.665" y="2093.708" style="fill:#E0AA63;" width="202.633" height="33.045"/>
					<ellipse style="fill:#EFBC73;" cx="707.981" cy="2094.336" rx="101.316" ry="32.074"/>
					<path style="fill:#FFFFFF;" d="M719.917,2128.615c-58.049,0-103.521-15.057-103.521-34.278
						c0-19.221,45.472-34.278,103.521-34.278c58.049,0,103.521,15.057,103.521,34.278
						C823.438,2113.557,777.966,2128.615,719.917,2128.615z M719.917,2064.468c-59.287,0-99.111,15.444-99.111,29.868
						c0,14.424,39.824,29.868,99.111,29.868s99.111-15.444,99.111-29.868C819.029,2079.912,779.204,2064.468,719.917,2064.468z"/>
				</g>
				<g>
					<ellipse style="fill:#E0AA63;" cx="696.045" cy="2077.648" rx="101.316" ry="31.985"/>
					<rect x="594.729" y="2045.784" style="fill:#E0AA63;" width="202.633" height="32.954"/>
					<ellipse style="fill:#EFBC73;" cx="696.045" cy="2046.41" rx="101.316" ry="31.985"/>
					<path style="fill:#FFFFFF;" d="M707.981,2080.601c-58.049,0-103.521-15.018-103.521-34.192
						c0-19.172,45.472-34.19,103.521-34.19c58.049,0,103.521,15.018,103.521,34.19
						C811.502,2065.583,766.029,2080.601,707.981,2080.601z M707.981,2016.629c-59.287,0-99.111,15.399-99.111,29.78
						c0,14.383,39.825,29.782,99.111,29.782c59.287,0,99.111-15.399,99.111-29.782
						C807.092,2032.029,767.267,2016.629,707.981,2016.629z"/>
				</g>
				<g>
					
						<ellipse transform="matrix(0.7103 -0.7039 0.7039 0.7103 -1204.1752 1034.3817)" style="fill:#E0AA63;" cx="654.626" cy="1980.194" rx="32.078" ry="101.304"/>
					
						<rect x="649.066" y="1868.031" transform="matrix(0.7103 -0.7039 0.7039 0.7103 -1193.3302 1038.9021)" style="fill:#E0AA63;" width="33.05" height="202.607"/>
					
						<ellipse transform="matrix(0.7103 -0.7039 0.7039 0.7103 -1182.2102 1043.6632)" style="fill:#EFBC73;" cx="676.886" cy="1958.149" rx="32.077" ry="101.304"/>
					<path style="fill:#FFFFFF;" d="M746.636,2044.168c-19.245,0-53.066-20.474-85.708-53.417
						c-19.202-19.378-34.877-39.99-44.139-58.04c-9.638-18.782-11.186-32.848-4.358-39.611
						c13.662-13.515,56.363,8.175,97.212,49.402c19.202,19.378,34.877,39.99,44.14,58.04c9.637,18.782,11.186,32.85,4.358,39.613
						C755.395,2042.872,751.476,2044.168,746.636,2044.168z M624.068,1893.411c-3.729,0-6.627,0.934-8.533,2.823
						c-5.271,5.217-3.385,17.778,5.176,34.463c9.063,17.658,24.458,37.885,43.347,56.948c41.73,42.113,80.732,59.526,90.977,49.374
						l0,0c5.273-5.219,3.385-17.781-5.176-34.463c-9.063-17.66-24.457-37.885-43.347-56.951
						C672.548,1911.328,640.385,1893.411,624.068,1893.411z"/>
				</g>
			</g>
		</g>
		<g>
			<g>
				<g>
					<path style="fill:#FFFFFF;" d="M1833.267,1639.079c0,0,355.912,140.001,325.198,280.4
						c-27.647,126.38-368.168-23.238-368.168-23.238L1833.267,1639.079z"/>
					<path style="fill:#363E44;" d="M2067.712,1972.492c-107.847,0.002-269.998-70.584-278.302-74.234
						c-1.115-0.489-1.621-1.789-1.133-2.905c0.491-1.115,1.787-1.626,2.907-1.13c2.461,1.081,247.179,107.633,335.52,62.669
						c15.918-8.1,25.881-20.847,29.608-37.884c23.179-105.958-180.69-213.629-269.418-255.001c-1.102-0.515-1.58-1.826-1.066-2.93
						c0.517-1.1,1.83-1.578,2.93-1.066c50.573,23.583,123.013,61.147,180.914,106.178c70.649,54.946,101.247,106.68,90.947,153.762
						c-4.022,18.392-14.76,32.142-31.916,40.873C2112.463,1969.088,2091.395,1972.492,2067.712,1972.492z"/>
					<path style="fill:#FFFFFF;" d="M1835.926,1639.318c0,0-153.326-48.512-283.775-18.464
						c-130.449,30.049-220.89,77.872-220.89,77.872l60.414,160.794l14.93,303.971l447.262-156.368l-33.396-131.673
						L1835.926,1639.318z"/>
					<g>
						<path style="fill:#E2A18D;" d="M1226.584,1940.736c62.783,7.488,211.508,17.803,225.986,19.388
							c27.064,2.963,195.354,20.805,193.963,43.691c-0.817,13.441-50.989,7.754-60.454,6.623
							c7.194,4.682,54.547,28.173,51.704,39.175c-4.89,18.922-59.962-8.282-60.676-8.104c7.789,4.014,50.919,20.668,49.329,29.044
							c-3.402,17.921-48.307,3.839-58.29,1.916c0.784,1.564,37.869,12.551,36.025,24.544c-1.463,9.518-55.283,6.117-67.867,5.772
							c-24.048-2.614-87.405-2.069-133.185-2.395c-107.522-0.763-181.094-38.491-181.094-38.491
							S1197.881,1959.027,1226.584,1940.736z"/>
						<path style="fill:#363E44;" d="M1586.521,2011.677c-0.327,0-0.659-0.073-0.973-0.228c-5.021-2.476-10.253-4.625-15.557-6.384
							c-9.517-3.159-19.464-5.142-29.56-5.893c-1.214-0.091-2.125-1.148-2.035-2.362c0.09-1.212,1.13-2.123,2.362-2.035
							c10.458,0.777,20.761,2.831,30.624,6.104c5.493,1.824,10.914,4.05,16.116,6.617c1.092,0.538,1.542,1.86,1.001,2.952
							C1588.117,2011.227,1587.335,2011.677,1586.521,2011.677z"/>
						<path style="fill:#363E44;" d="M1577.721,2043.079c-0.252,0-0.508-0.043-0.758-0.136c-1.102-0.403-2.231-0.794-3.383-1.178
							c-9.519-3.159-19.467-5.142-29.563-5.893c-1.214-0.09-2.125-1.148-2.035-2.362s1.087-2.142,2.362-2.035
							c10.458,0.777,20.761,2.831,30.624,6.104c1.197,0.396,2.369,0.805,3.51,1.225c1.143,0.418,1.731,1.684,1.311,2.827
							C1579.463,2042.525,1578.619,2043.079,1577.721,2043.079z"/>
						<path style="fill:#363E44;" d="M1567.526,2074.31c-0.17,0-0.342-0.019-0.515-0.06c-6.38-1.527-12.956-2.547-19.54-3.038
							c-1.214-0.09-2.125-1.147-2.035-2.362c0.09-1.214,1.13-2.142,2.362-2.035c6.819,0.506,13.629,1.565,20.237,3.146
							c1.184,0.284,1.914,1.473,1.632,2.657C1569.427,2073.629,1568.523,2074.31,1567.526,2074.31z"/>
					</g>
					<path style="fill:#363E44;" d="M1624.882,1721.86c-0.355,0-0.711-0.086-1.034-0.256l-62.818-33.294
						c-1.074-0.571-1.486-1.906-0.915-2.982c0.57-1.072,1.908-1.486,2.982-0.915l59.969,31.785l12.204-104.287
						c0.142-1.208,1.242-2.089,2.446-1.934c1.21,0.142,2.076,1.236,1.934,2.446l-12.579,107.489
						c-0.084,0.723-0.521,1.356-1.165,1.697C1625.586,1721.776,1625.233,1721.86,1624.882,1721.86z"/>
					<path style="fill:#363E44;" d="M1472.34,1729.251c-0.299,0-0.601-0.06-0.885-0.185c-0.706-0.31-1.201-0.967-1.3-1.733
						l-11.194-85.376c-0.159-1.208,0.691-2.315,1.899-2.472c1.208-0.177,2.315,0.691,2.472,1.899l10.72,81.755l50.194-35.434
						c0.999-0.7,2.373-0.463,3.075,0.53c0.702,0.995,0.465,2.371-0.53,3.075l-53.178,37.54
						C1473.234,1729.116,1472.788,1729.251,1472.34,1729.251z"/>
					<path style="fill:#FFFFFF;" d="M1419.725,1891.416l-91.69,17.566l68.474,18.846l6.735,173.06
						c0,0-339.205,2.497-337.916-155.677c0.938-115.071,274.937-250.905,274.937-250.905L1419.725,1891.416z"/>
					<g>
						<path style="fill:#E2A18D;" d="M1950.842,1823.006c-126.744-24.53-170.179-38.403-296.923-62.933
							c-13.879-9.845-51.622-37.264-102.018-37.69c-50.403-0.427-97.609,33.522-93.255,45.879
							c2.037,5.781,14.412,15.199,28.697,5.785c17.168-11.314,28.247-11.224,42.358-12.385c-1.612,1.57-11.704,7.971-10.834,18.554
							c0.885,10.77,10.586,18.559,12.049,19.845c-3.798,7.368-6.864,13.785-3.17,23.653c4.368,11.669,16.44,15.08,16.44,15.08
							s-2.234,15.739,7.179,30.024c12.108,18.374,34.392,23.925,41.164,15.44c2.667-3.344,5.29-12.841-5.38-25.128
							c5.267,3.592,23.275,25.632,42.776,33.041c16.213,6.16,32.791-0.704,38.576-1.938
							c102.988,45.455,144.501,46.758,247.489,92.213C1932.849,1921.223,1933.981,1884.23,1950.842,1823.006z"/>
						<path style="fill:#363E44;" d="M1530.985,1762.812c-0.941,0-1.813-0.607-2.106-1.552c-0.36-1.163,0.291-2.399,1.453-2.758
							c3.258-1.01,6.634-1.643,10.038-1.882c4.097-0.293,8.223-0.011,12.262,0.827c1.193,0.248,1.959,1.415,1.712,2.608
							c-0.25,1.193-1.43,1.94-2.607,1.712c-3.645-0.758-7.366-1.003-11.056-0.749c-3.066,0.218-6.109,0.788-9.043,1.697
							C1531.42,1762.78,1531.201,1762.812,1530.985,1762.812z"/>
						<path style="fill:#363E44;" d="M1530.729,1803.384c-0.726,0-1.436-0.357-1.858-1.014c-0.657-1.025-0.359-2.388,0.665-3.047
							c2.872-1.845,5.958-3.359,9.164-4.498c3.874-1.376,7.924-2.211,12.038-2.483c1.193-0.049,2.265,0.84,2.345,2.056
							c0.08,1.214-0.84,2.265-2.056,2.345c-3.708,0.243-7.359,0.997-10.85,2.237c-2.89,1.027-5.669,2.39-8.259,4.054
							C1531.549,1803.272,1531.136,1803.384,1530.729,1803.384z"/>
						<path style="fill:#363E44;" d="M1545.487,1839.471c-0.431,0-0.866-0.125-1.249-0.39c-1.003-0.689-1.255-2.063-0.564-3.066
							c2.692-3.908,7.342-7.45,11.849-9.022c8.107-2.829,15.335-0.788,18.924,0.68c1.126,0.461,1.667,1.748,1.206,2.877
							c-0.461,1.128-1.753,1.669-2.877,1.206c-3.012-1.234-9.069-2.948-15.802-0.599c-3.678,1.283-7.474,4.171-9.67,7.359
							C1546.878,1839.137,1546.189,1839.471,1545.487,1839.471z"/>
						<path style="fill:#363E44;" d="M1587.74,1861.476c-0.121,0-0.241-0.009-0.364-0.03l-16.172-2.694
							c-1.201-0.2-2.013-1.335-1.813-2.536c0.198-1.201,1.326-2.024,2.536-1.813l16.172,2.694c1.201,0.2,2.013,1.335,1.813,2.536
							C1589.734,1860.712,1588.799,1861.476,1587.74,1861.476z"/>
					</g>
					<g>
						<path style="fill:#FFFFFF;" d="M2147.291,1923.259c22.995-121.121-383.463-163.931-383.463-163.931l-41.742,177.005
							C1722.085,1936.334,2116.67,2084.547,2147.291,1923.259z"/>
						<path style="fill:#363E44;" d="M2076.486,1837.563c-0.327,0-0.659-0.073-0.973-0.226
							c-109.614-54.018-309.908-75.604-311.917-75.817c-1.212-0.127-2.091-1.212-1.962-2.422c0.125-1.212,1.242-2.089,2.422-1.961
							c2.02,0.211,203.093,21.884,313.407,76.243c1.092,0.538,1.542,1.86,1.003,2.954
							C2078.082,1837.111,2077.3,1837.563,2076.486,1837.563z"/>
						<path style="fill:#363E44;" d="M2001.378,1989.145c-33.038,0.002-70.466-3.383-112.218-10.161
							c-89.754-14.573-167.006-40.3-167.777-40.559c-1.079-0.362-1.705-1.488-1.445-2.597l5.109-21.673
							c0.278-1.184,1.471-1.918,2.653-1.641c1.184,0.28,1.918,1.468,1.641,2.653l-4.644,19.701
							c26.111,8.443,309.962,97.419,413.681,14.407c0.954-0.766,2.341-0.609,3.098,0.342c0.762,0.952,0.607,2.339-0.342,3.099
							C2110.825,1976.977,2064.009,1989.145,2001.378,1989.145z"/>
					</g>
					<path style="fill:#363E44;" d="M1397.172,1929.024c-0.177,0-0.355-0.022-0.534-0.065l-204.32-50.812
						c-1.182-0.295-1.901-1.49-1.608-2.672c0.293-1.184,1.49-1.891,2.672-1.608l204.321,50.812c1.182,0.295,1.901,1.49,1.608,2.672
						C1399.06,1928.355,1398.16,1929.024,1397.172,1929.024z"/>
					<path style="fill:#363E44;" d="M1397.617,1956.389c-1.174,0-2.149-0.926-2.201-2.11l-7.129-165.482
						c-0.052-1.217,0.891-2.246,2.108-2.297c1.253-0.084,2.246,0.891,2.297,2.108l7.129,165.482
						c0.052,1.217-0.891,2.246-2.108,2.297C1397.682,1956.389,1397.65,1956.389,1397.617,1956.389z"/>
					<path style="fill:#363E44;" d="M1124.76,1842.843c-0.556,0-1.113-0.209-1.542-0.629c-0.87-0.85-0.887-2.246-0.035-3.118
						c68.233-69.809,279.519-174.118,281.644-175.165c1.098-0.53,2.416-0.082,2.952,1.005c0.536,1.094,0.086,2.414-1.005,2.952
						c-2.121,1.042-212.731,105.017-280.438,174.291C1125.906,1842.621,1125.333,1842.843,1124.76,1842.843z"/>
				</g>
				<g>
					<polygon style="fill:#E2A18D;" points="1501.401,1634.404 1539.347,1723.268 1607.493,1612.049 1562.018,1476.535 
						1475.19,1492.549 					"/>
					<path style="fill:#E2A18D;" d="M1495.075,1412.025c-3.8,0.206-40.158,2.727-58.057,30.572
						c-13.318,20.719-11.685,44.466-2.922,83.882c10.318,46.417,22.971,72.723,37.88,79.927
						c23.556,11.384,82.505-31.049,100.316-75.656c12.856-32.198,5.089-69.97-17.695-96.424
						C1531.875,1407.947,1497.5,1411.894,1495.075,1412.025z"/>
					<path style="fill:#363E44;" d="M1500.546,1607.353c-0.859,0-1.677-0.506-2.033-1.35c-0.471-1.122,0.054-2.414,1.178-2.887
						c24.991-10.518,58.365-40.242,70.957-71.773c0.452-1.13,1.735-1.682,2.866-1.229c1.13,0.452,1.682,1.735,1.229,2.866
						c-13.509,33.83-47.871,63.479-73.343,74.202C1501.123,1607.297,1500.833,1607.353,1500.546,1607.353z"/>
					<g>
						<path style="fill:#FFFFFF;" d="M1504.824,1495.054c0,0-2.193,14.412-11.503,26.747c-1.956,2.591-19.144-18.178-16.076-19.776
							C1490.677,1495.026,1504.824,1495.054,1504.824,1495.054z"/>
						<path style="fill:#363E44;" d="M1449.975,1542.094c0,0,3.211-21.103,18.358-34.092c2.81-2.412,5.834-4.371,8.896-5.967
							c8.185,3.224,14.493,10.499,16.128,19.709c-1.966,2.61-4.242,5.131-6.89,7.402
							C1471.321,1542.137,1449.975,1542.094,1449.975,1542.094z"/>
					</g>
					<path style="fill:#E2A18D;" d="M1441.427,1535.74c0.612,2.925,1.085,7.286-0.291,12.082c-1.658,5.785-4.779,7.921-4.192,11.333
						c0.395,2.288,2.485,5.332,10.588,8.095L1441.427,1535.74z"/>
					<path style="fill:#363E44;" d="M1445.579,1567.223c-0.233,0-0.469-0.037-0.702-0.114c-5.938-1.996-9.112-4.593-9.702-7.943
						c-0.396-2.239,0.54-3.96,1.449-5.622c0.618-1.135,1.318-2.418,1.807-4.158c0.73-2.579,0.78-5.372,0.153-8.305
						c-0.256-1.191,0.504-2.362,1.694-2.616c1.184-0.273,2.36,0.504,2.616,1.695c0.779,3.639,0.706,7.146-0.22,10.423
						c-0.622,2.216-1.486,3.8-2.179,5.071c-0.803,1.471-1.094,2.089-0.98,2.745c0.269,1.525,2.734,3.176,6.765,4.528
						c1.154,0.388,1.776,1.639,1.389,2.793C1447.359,1566.642,1446.5,1567.223,1445.579,1567.223z"/>
					<path style="fill:#9E6C5A;" d="M1439.467,1407.373c13.186-16.085,35.555-25.55,58.764-27.964l-24.009,14.381l40.354-14.911
						c18.896,0.757,37.053,6.284,49.93,16.874c34.077,28.023,39.81,60.629,17.787,141.8c-8.056-21.849-16.332-55.097-33.087-58.545
						c-10.832-2.229-20.268,2.156-24.6,4.586c-8.878-21.543-14.985-42.149-35.743-40.628c-22.01,1.613-52.029,29.487-53.824,32.071
						C1433.638,1470.503,1416.009,1435.988,1439.467,1407.373z"/>
					<g>
						
							<ellipse transform="matrix(0.2878 -0.9577 0.9577 0.2878 -326.068 2544.4182)" style="fill:#E2A18D;" cx="1547.771" cy="1491.449" rx="29.932" ry="25.3"/>
						<path style="fill:#363E44;" d="M1558.948,1500.215c-0.332,0-0.67-0.075-0.986-0.235c-1.087-0.545-1.529-1.869-0.982-2.958
							c0.396-0.792,0.73-1.636,0.99-2.504c2.065-6.869-0.833-13.834-6.457-15.524c-1.328-0.401-2.715-0.478-4.123-0.235
							c-1.208,0.198-2.343-0.596-2.552-1.793c-0.209-1.202,0.594-2.343,1.794-2.552c2.089-0.36,4.156-0.241,6.151,0.355
							c7.952,2.392,12.174,11.821,9.411,21.017c-0.334,1.109-0.762,2.192-1.275,3.213
							C1560.535,1499.769,1559.756,1500.215,1558.948,1500.215z"/>
					</g>
					<path style="fill:#9E6C5A;" d="M1522.673,1467.935c-3.782,0.481,8.223,42.404-1.593,61.434
						c-13.963,27.064-45.933,34.187-75.308,38.26c-3.477,14.655-17.109,76.073,5.37,89.506
						c23.183,13.852,82.872-24.476,98.142-76.535C1562.769,1534.626,1528.708,1467.167,1522.673,1467.935z"/>
					<path style="fill:#363E44;" d="M1471.737,1582.838c-1.406,0-2.836-0.237-4.222-0.734c-1.148-0.411-1.744-1.673-1.333-2.818
						c0.411-1.15,1.677-1.746,2.818-1.333c3.247,1.167,6.836,0.159,8.724-2.442c2.345-3.238,0.627-7.336,0.609-7.377
						c-0.48-1.115,0.03-2.416,1.143-2.9c1.115-0.487,2.409,0.021,2.896,1.133c0.114,0.26,2.754,6.44-1.079,11.732
						C1479.092,1581.139,1475.494,1582.838,1471.737,1582.838z"/>
				</g>
			</g>
			<g>
				<path style="fill:#363E44;" d="M1046.958,2138.278h611.427c12.772,0,23.125-10.354,23.125-23.125v-1.999h-657.678v1.999
					C1023.832,2127.925,1034.186,2138.278,1046.958,2138.278z"/>
				<polygon style="fill:#363E44;" points="984.182,2113.051 1492.336,2113.051 1356.243,1752.436 848.09,1752.436 				"/>
				<path style="fill:#F2E6DC;" d="M1136.555,1928.986c3.264,10.525,12.072,17.146,19.673,14.788
					c7.601-2.357,11.117-12.8,7.853-23.325c-3.264-10.525-12.072-17.146-19.673-14.788
					C1136.807,1908.018,1133.291,1918.461,1136.555,1928.986z"/>
			</g>
		</g>
	</g>
</g>
</svg>
