<svg width="392" height="438" viewBox="0 0 392 438" fill="none" xmlns="http://www.w3.org/2000/svg">
<path d="M222.142 255.812C222.142 258.756 224.513 261.144 227.437 261.144H363.951C366.875 261.144 369.246 258.756 369.246 255.812V211.298C369.246 208.353 366.875 205.966 363.951 205.966H227.437C224.513 205.966 222.142 208.353 222.142 211.298V255.812ZM232.732 216.633L358.654 216.631V250.479L232.732 250.481V216.633Z" fill="black"/>
<path d="M259.943 273.352H227.44C224.516 273.352 222.145 275.74 222.145 278.684V311.413C222.145 314.359 224.516 316.745 227.44 316.745H259.943C262.867 316.745 265.238 314.359 265.238 311.413V278.684C265.238 275.739 262.867 273.352 259.943 273.352ZM254.648 306.082H232.735V284.016H254.648V306.082Z" fill="black"/>
<path d="M311.947 273.352H279.444C276.52 273.352 274.149 275.74 274.149 278.684V311.413C274.149 314.359 276.52 316.745 279.444 316.745H311.948H311.947C314.872 316.745 317.241 314.359 317.241 311.413V278.684C317.241 275.739 314.872 273.352 311.947 273.352ZM306.652 306.082H284.739V284.016H306.653L306.652 306.082Z" fill="black"/>
<path d="M363.935 273.352H331.432C328.508 273.352 326.137 275.74 326.137 278.684V311.413C326.137 314.359 328.509 316.745 331.432 316.745H363.935C366.859 316.745 369.23 314.359 369.23 311.413V278.684C369.23 275.739 366.859 273.352 363.935 273.352ZM358.64 306.082H336.728V284.016H358.64V306.082Z" fill="black"/>
<path d="M259.943 325.719H227.44C224.516 325.719 222.145 328.106 222.145 331.05V363.78C222.145 366.724 224.516 369.112 227.44 369.112H259.943C262.867 369.112 265.238 366.724 265.238 363.78V331.05C265.238 328.106 262.867 325.719 259.943 325.719ZM254.648 358.448H232.735V336.383H254.648V358.448Z" fill="black"/>
<path d="M311.947 325.719H279.444C276.52 325.719 274.149 328.106 274.149 331.05V363.78C274.149 366.724 276.52 369.112 279.444 369.112H311.948H311.947C314.872 369.112 317.241 366.724 317.241 363.78V331.05C317.241 328.106 314.872 325.719 311.947 325.719ZM306.652 358.448H284.739V336.383H306.653L306.652 358.448Z" fill="black"/>
<path d="M259.943 378.097H227.44C224.516 378.097 222.145 380.484 222.145 383.428V416.159C222.145 419.104 224.516 421.491 227.44 421.491H259.943C262.867 421.491 265.238 419.104 265.238 416.159V383.428C265.238 380.484 262.867 378.097 259.943 378.097ZM254.648 410.828H232.735V388.761H254.648V410.828Z" fill="black"/>
<path d="M311.947 378.097H279.444C276.52 378.097 274.149 380.484 274.149 383.428V416.159C274.149 419.104 276.52 421.491 279.444 421.491H311.948H311.947C314.872 421.491 317.241 419.104 317.241 416.159V383.428C317.241 380.484 314.872 378.097 311.947 378.097ZM306.652 410.828H284.739V388.761H306.653L306.652 410.828Z" fill="black"/>
<path d="M363.935 325.719H331.432C328.508 325.719 326.137 328.106 326.137 331.05V416.147C326.137 419.091 328.509 421.478 331.432 421.478H363.935C366.859 421.478 369.23 419.091 369.23 416.147V331.05C369.23 328.106 366.859 325.719 363.935 325.719ZM358.64 410.815H336.728V336.381H358.64V410.815Z" fill="black"/>
<path d="M24.7122 393.567H199.392V414.12C199.399 420.246 201.819 426.119 206.121 430.451C210.422 434.781 216.254 437.218 222.337 437.225H369.055C375.138 437.218 380.972 434.781 385.272 430.451C389.575 426.118 391.994 420.246 392 414.12V207.463C391.994 201.337 389.575 195.465 385.272 191.133C380.972 186.802 375.138 184.365 369.055 184.358H301.85V49.3257C301.842 42.729 299.237 36.4045 294.604 31.7388C289.972 27.0747 283.691 24.4501 277.14 24.4429H213.987C212.74 17.5884 209.149 11.3898 203.837 6.92585C198.524 2.46041 191.826 0.0106193 184.906 2.68781e-06H116.944C110.021 -0.00295936 103.316 2.44236 98 6.90802C92.6844 11.375 89.0941 17.5796 87.8557 24.4384H24.7103C18.1593 24.4458 11.8786 27.0703 7.24685 31.7358C2.61506 36.3999 0.00866037 42.724 0 49.3211V368.681C0.00735454 375.279 2.6137 381.604 7.24685 386.269C11.8786 390.935 18.1589 393.56 24.7103 393.567L24.7122 393.567ZM381.41 207.464V414.121C381.407 417.42 380.104 420.582 377.788 422.914C375.472 425.247 372.331 426.558 369.055 426.562H222.337C219.062 426.559 215.921 425.247 213.605 422.914C211.29 420.582 209.987 417.419 209.982 414.121V207.464C209.987 204.166 211.29 201.004 213.605 198.671C215.922 196.338 219.062 195.026 222.337 195.023H369.055C372.331 195.028 375.473 196.338 377.788 198.671C380.104 201.004 381.407 204.166 381.41 207.464ZM103.525 16.2624C107.077 12.6663 111.911 10.6504 116.947 10.6637H184.908C191.687 10.6637 197.952 14.3057 201.342 20.2183C204.733 26.131 204.733 33.4151 201.342 39.3275C197.952 45.2402 191.687 48.8821 184.908 48.8821H116.947C111.915 48.8791 107.091 46.8663 103.533 43.2818C99.9749 39.699 97.9759 34.8408 97.9744 29.774C97.9729 24.7072 99.9703 19.8459 103.525 16.2617V16.2624ZM10.592 49.3253C10.5964 45.5559 12.0849 41.9418 14.7324 39.2759C17.3799 36.6114 20.9686 35.1111 24.7122 35.1066H87.8538C87.8759 35.2295 87.9053 35.3525 87.9288 35.4754C87.9656 35.6679 88.0053 35.8575 88.045 36.0471C88.1039 36.3196 88.1656 36.5907 88.2318 36.8602C88.2774 37.0454 88.3201 37.232 88.3715 37.4171C88.4436 37.6926 88.523 37.9651 88.6039 38.2377C88.6554 38.4154 88.704 38.5857 88.7584 38.7561C88.8525 39.0538 88.954 39.3485 89.0555 39.6448C89.1055 39.7855 89.1511 39.9291 89.2026 40.0698C89.3599 40.5008 89.5262 40.9289 89.7041 41.3495C89.7174 41.3792 89.7321 41.4088 89.7453 41.4384C89.9115 41.8294 90.0851 42.2145 90.266 42.5937C90.3336 42.7359 90.4087 42.8766 90.4778 43.0173C90.6102 43.2839 90.7425 43.5505 90.8837 43.8171C90.972 43.9785 91.0602 44.1355 91.1485 44.294C91.2823 44.5325 91.4132 44.7709 91.5559 45.0049C91.653 45.1679 91.753 45.3293 91.853 45.4907C91.9927 45.7159 92.1354 45.941 92.281 46.1631C92.3869 46.3231 92.4928 46.4816 92.6017 46.6401C92.7517 46.8593 92.9047 47.0755 93.0606 47.2903C93.1724 47.4428 93.2827 47.5968 93.3974 47.7479C93.5607 47.9642 93.7298 48.1774 93.899 48.3907C94.0107 48.5314 94.1225 48.6736 94.2373 48.8128C94.427 49.0424 94.6226 49.2675 94.8197 49.4897C94.9197 49.6052 95.0198 49.7223 95.1212 49.8348C95.4228 50.1666 95.7317 50.4924 96.0449 50.8123L96.1258 50.8894C96.42 51.1811 96.7186 51.467 97.0201 51.7484C97.1363 51.855 97.2554 51.9558 97.3731 52.0609C97.5923 52.2564 97.8144 52.4504 98.0365 52.64C98.1747 52.757 98.3174 52.8696 98.4586 52.9836C98.6689 53.154 98.8793 53.3228 99.094 53.4872C99.2455 53.6027 99.397 53.7153 99.5499 53.8264C99.7632 53.9834 99.9765 54.1374 100.194 54.287C100.352 54.3966 100.51 54.5047 100.669 54.6114C100.89 54.7565 101.112 54.9002 101.336 55.0409C101.496 55.1416 101.656 55.2423 101.819 55.3401C102.052 55.4808 102.29 55.617 102.525 55.7503C102.683 55.8392 102.84 55.9281 102.999 56.0169C103.264 56.1606 103.529 56.2954 103.798 56.4287C103.936 56.4983 104.071 56.5708 104.21 56.6375C104.617 56.8345 105.029 57.0241 105.445 57.2018L105.5 57.224C105.901 57.3943 106.307 57.5558 106.717 57.7083C106.862 57.7616 107.01 57.8105 107.159 57.8624C107.445 57.9631 107.732 58.0638 108.022 58.1571C108.199 58.2119 108.369 58.2623 108.544 58.3141C108.809 58.3941 109.081 58.4726 109.353 58.5466C109.537 58.5955 109.722 58.6414 109.909 58.6873C110.175 58.754 110.445 58.8162 110.714 58.8754C110.902 58.9169 111.092 58.9569 111.283 58.9939C111.555 59.0472 111.829 59.0961 112.104 59.142C112.293 59.1746 112.483 59.2057 112.674 59.2309C112.96 59.2724 113.245 59.3079 113.533 59.3405C113.716 59.3612 113.9 59.3864 114.083 59.4042C114.401 59.4353 114.72 59.456 115.041 59.4768C115.197 59.4871 115.351 59.502 115.507 59.5094C115.985 59.5331 116.466 59.5464 116.949 59.5464H184.91H184.907C192.756 59.5701 200.286 56.4271 205.815 50.8195C206.294 50.3367 206.749 49.8345 207.19 49.3251C207.295 49.2051 207.399 49.0851 207.501 48.9637C207.929 48.4557 208.342 47.9373 208.736 47.4055C208.78 47.3448 208.82 47.2826 208.864 47.2234C209.217 46.7316 209.554 46.231 209.876 45.7215C209.957 45.5941 210.039 45.4668 210.117 45.3364C210.458 44.781 210.779 44.2167 211.082 43.6405C211.135 43.5398 211.182 43.4376 211.234 43.3369C211.495 42.823 211.741 42.3031 211.972 41.7743C212.026 41.6484 212.084 41.524 212.138 41.3981C212.39 40.7998 212.622 40.194 212.834 39.5823C212.878 39.4534 212.922 39.3231 212.96 39.1942C213.141 38.6462 213.307 38.0923 213.456 37.5324C213.485 37.4228 213.518 37.3147 213.544 37.2036C213.705 36.5712 213.843 35.9313 213.962 35.287C213.972 35.2263 213.99 35.1671 214 35.1093H277.138C280.883 35.1137 284.47 36.6126 287.118 39.2786C289.765 41.9446 291.254 45.5584 291.258 49.328V184.36H222.333C216.25 184.366 210.417 186.803 206.117 191.135C201.815 195.467 199.395 201.34 199.388 207.466V382.902H24.712C20.9687 382.897 17.3797 381.397 14.7338 378.732C12.0863 376.066 10.5979 372.453 10.5919 368.683L10.592 49.3253Z" fill="black"/>
<path d="M44.1302 111.691H257.721C260.645 111.691 263.016 109.303 263.016 106.359C263.016 103.415 260.645 101.027 257.721 101.027H44.1302C41.2047 101.027 38.8354 103.415 38.8354 106.359C38.8354 109.303 41.2049 111.691 44.1302 111.691Z" fill="black"/>
<path d="M257.718 152.353H112.088C109.164 152.353 106.793 154.74 106.793 157.684C106.793 160.629 109.164 163.016 112.088 163.016H257.718C260.642 163.016 263.012 160.629 263.012 157.684C263.012 154.74 260.641 152.353 257.718 152.353Z" fill="black"/>
<path d="M112.088 203.68C109.164 203.68 106.793 206.068 106.793 209.012C106.793 211.956 109.164 214.344 112.088 214.344H183.931C186.855 214.344 189.226 211.956 189.226 209.012C189.226 206.068 186.855 203.68 183.931 203.68H112.088Z" fill="black"/>
<path d="M44.1302 265.67H183.935C186.859 265.67 189.23 263.283 189.23 260.338C189.23 257.394 186.859 255.006 183.935 255.006H44.1302C41.2047 255.006 38.8354 257.394 38.8354 260.338C38.8354 263.283 41.2049 265.67 44.1302 265.67Z" fill="black"/>
<path d="M44.1302 316.994H183.935C186.859 316.994 189.23 314.606 189.23 311.662C189.23 308.718 186.859 306.33 183.935 306.33H44.1302C41.2047 306.33 38.8354 308.718 38.8354 311.662C38.8354 314.606 41.2049 316.994 44.1302 316.994Z" fill="black"/>
<path d="M62.2831 215.378C62.2405 215.378 62.1949 215.372 62.1552 215.372C62.1155 215.372 62.0669 215.378 62.0272 215.378C58.6752 215.341 55.4732 213.975 53.1138 211.577C50.7546 209.178 49.4293 205.94 49.4249 202.564C49.4249 199.618 47.0539 197.233 44.13 197.233C41.2045 197.233 38.8352 199.619 38.8352 202.564C38.8425 207.862 40.6266 213.003 43.8977 217.155C47.1689 221.305 51.7372 224.221 56.8604 225.43V231.516C56.8604 234.46 59.2314 236.847 62.1553 236.847C65.0793 236.847 67.4502 234.46 67.4502 231.516V225.43C74.9485 223.672 81.1012 218.298 83.8928 211.073C86.683 203.847 85.7534 195.701 81.4056 189.302C77.0577 182.904 69.8549 179.078 62.1551 179.08C58.778 179.08 55.5408 177.729 53.1521 175.325C50.7649 172.92 49.4235 169.66 49.4235 166.259C49.4235 162.858 50.7649 159.597 53.1521 157.193C55.5407 154.789 58.7779 153.439 62.1551 153.439C65.5323 153.439 68.7709 154.789 71.1581 157.193C73.5453 159.597 74.8867 162.858 74.8867 166.259C74.8867 169.204 77.2577 171.591 80.1816 171.591C83.1071 171.591 85.4765 169.203 85.4765 166.259C85.4691 160.96 83.685 155.819 80.4139 151.669C77.1413 147.519 72.5744 144.602 67.4497 143.394V138.133C67.4497 135.189 65.0787 132.801 62.1548 132.801C59.2308 132.801 56.8599 135.189 56.8599 138.133V143.394C49.3616 145.152 43.2089 150.526 40.4188 157.75C37.6271 164.977 38.5582 173.123 42.9046 179.521C47.2524 185.92 54.4567 189.745 62.1551 189.744C66.6822 189.751 70.8655 192.18 73.1394 196.122C75.4148 200.063 75.4384 204.925 73.2041 208.889C70.9684 212.854 66.8106 215.324 62.2831 215.378Z" fill="black"/>
</svg>
