<svg width="685" height="579" viewBox="0 0 685 579" fill="none" xmlns="http://www.w3.org/2000/svg">
<g clip-path="url(#clip0_1_43)">
<path fill-rule="evenodd" clip-rule="evenodd" d="M454.315 381.504H230.683C227.727 381.504 225.331 379.21 225.331 376.379V162.214C225.331 159.383 227.727 157.089 230.683 157.089C233.639 157.089 236.034 159.383 236.034 162.214V371.255H454.315C457.271 371.255 459.666 373.549 459.666 376.379C459.666 379.21 457.271 381.504 454.315 381.504Z" fill="black"/>
<path fill-rule="evenodd" clip-rule="evenodd" d="M249.271 187.844H230.686C227.73 187.844 225.334 185.55 225.334 182.719C225.334 179.889 227.73 177.595 230.686 177.595H249.271C252.227 177.595 254.623 179.889 254.623 182.719C254.623 185.55 252.226 187.844 249.271 187.844Z" fill="black"/>
<path fill-rule="evenodd" clip-rule="evenodd" d="M249.271 219.599H230.686C227.73 219.599 225.334 217.306 225.334 214.475C225.334 211.644 227.73 209.35 230.686 209.35H249.271C252.227 209.35 254.623 211.644 254.623 214.475C254.623 217.306 252.226 219.599 249.271 219.599Z" fill="black"/>
<path fill-rule="evenodd" clip-rule="evenodd" d="M249.271 251.355H230.686C227.73 251.355 225.334 249.06 225.334 246.23C225.334 243.399 227.73 241.105 230.686 241.105H249.271C252.227 241.105 254.623 243.399 254.623 246.23C254.623 249.06 252.226 251.355 249.271 251.355Z" fill="black"/>
<path fill-rule="evenodd" clip-rule="evenodd" d="M249.271 283.11H230.686C227.73 283.11 225.334 280.816 225.334 277.985C225.334 275.154 227.73 272.86 230.686 272.86H249.271C252.227 272.86 254.623 275.154 254.623 277.985C254.623 280.816 252.226 283.11 249.271 283.11Z" fill="black"/>
<path fill-rule="evenodd" clip-rule="evenodd" d="M249.271 314.865H230.686C227.73 314.865 225.334 312.571 225.334 309.74C225.334 306.909 227.73 304.615 230.686 304.615H249.271C252.227 304.615 254.623 306.909 254.623 309.74C254.623 312.571 252.226 314.865 249.271 314.865Z" fill="black"/>
<path fill-rule="evenodd" clip-rule="evenodd" d="M249.271 346.618H230.686C227.73 346.618 225.334 344.324 225.334 341.493C225.334 338.663 227.73 336.369 230.686 336.369H249.271C252.227 336.369 254.623 338.663 254.623 341.493C254.623 344.324 252.226 346.618 249.271 346.618Z" fill="black"/>
<path fill-rule="evenodd" clip-rule="evenodd" d="M308.005 381.504C305.05 381.504 302.654 379.21 302.654 376.379V278.836H284.213V376.379C284.213 379.21 281.817 381.504 278.861 381.504C275.906 381.504 273.51 379.21 273.51 376.379V273.712C273.51 270.881 275.906 268.587 278.861 268.587H308.006C310.962 268.587 313.357 270.881 313.357 273.712V376.379C313.355 379.21 310.96 381.504 308.005 381.504Z" fill="black"/>
<path fill-rule="evenodd" clip-rule="evenodd" d="M371.644 381.504C368.689 381.504 366.293 379.21 366.293 376.379V256.623L347.853 256.624V376.38C347.853 379.21 345.457 381.504 342.502 381.504C339.548 381.504 337.151 379.21 337.151 376.38V251.499C337.151 248.668 339.546 246.374 342.502 246.374H371.646C374.602 246.374 376.997 248.668 376.997 251.499V376.38C376.996 379.21 374.6 381.504 371.644 381.504Z" fill="black"/>
<path fill-rule="evenodd" clip-rule="evenodd" d="M435.285 381.504C432.329 381.504 429.934 379.21 429.934 376.379V227.004H411.492V376.379C411.492 379.21 409.097 381.504 406.141 381.504C403.185 381.504 400.79 379.21 400.79 376.379V221.88C400.79 219.049 403.185 216.755 406.141 216.755H435.285C438.241 216.755 440.637 219.049 440.637 221.88V376.379C440.637 379.21 438.241 381.504 435.285 381.504Z" fill="black"/>
<path fill-rule="evenodd" clip-rule="evenodd" d="M291.348 250.928C290.12 250.928 288.884 250.525 287.876 249.701C285.628 247.865 285.361 244.63 287.28 242.475L325.344 199.757C326.688 198.249 328.818 197.618 330.816 198.138L369.4 208.168L402.888 175.027C404.948 172.992 408.334 172.943 410.455 174.909C412.579 176.878 412.635 180.122 410.58 182.156L374.895 217.47C373.538 218.813 371.525 219.338 369.647 218.853L331.284 208.88L295.42 249.13C294.364 250.317 292.86 250.928 291.348 250.928Z" fill="black"/>
<path fill-rule="evenodd" clip-rule="evenodd" d="M576.935 465.451H108.065C95.6971 465.451 85.6357 455.815 85.6357 443.971V149.581C85.6357 137.736 95.6972 128.102 108.065 128.102H576.935C589.303 128.102 599.365 137.738 599.365 149.581V443.971C599.363 455.815 589.303 465.451 576.935 465.451ZM108.065 138.35C101.599 138.35 96.3383 143.388 96.3383 149.581V443.971C96.3383 450.164 101.599 455.202 108.065 455.202H576.935C583.401 455.202 588.662 450.164 588.662 443.971V149.581C588.662 143.388 583.401 138.35 576.935 138.35H108.065Z" fill="black"/>
<path fill-rule="evenodd" clip-rule="evenodd" d="M294.366 527.898C293.457 527.898 292.538 527.677 291.695 527.21C289.136 525.795 288.258 522.662 289.735 520.21C311.728 483.731 290.909 464.243 290.696 464.051C288.547 462.108 288.451 458.864 290.48 456.807C292.51 454.747 295.896 454.657 298.044 456.601C299.164 457.614 325.178 481.918 299.004 525.335C298.015 526.979 296.215 527.898 294.366 527.898Z" fill="black"/>
<path fill-rule="evenodd" clip-rule="evenodd" d="M390.635 527.898C388.774 527.898 386.967 526.968 385.98 525.311C360.169 481.926 385.825 457.637 386.93 456.624C389.066 454.666 392.452 454.739 394.497 456.783C396.533 458.82 396.466 462.048 394.353 464.007C393.444 464.868 373.799 484.134 395.278 520.235C396.743 522.695 395.846 525.825 393.278 527.225C392.442 527.681 391.532 527.898 390.635 527.898Z" fill="black"/>
<path fill-rule="evenodd" clip-rule="evenodd" d="M453.12 527.897H231.882C228.926 527.897 226.531 525.604 226.531 522.773C226.531 519.942 228.926 517.648 231.882 517.648H453.12C456.076 517.648 458.471 519.942 458.471 522.773C458.471 525.604 456.076 527.897 453.12 527.897Z" fill="black"/>
<path fill-rule="evenodd" clip-rule="evenodd" d="M594.012 416.381H90.987C88.0309 416.381 85.6357 414.087 85.6357 411.257C85.6357 408.426 88.0309 406.132 90.987 406.132H594.012C596.968 406.132 599.363 408.426 599.363 411.257C599.363 414.087 596.969 416.381 594.012 416.381Z" fill="black"/>
</g>
<defs>
<clipPath id="clip0_1_43">
<rect width="685" height="579" fill="white"/>
</clipPath>
</defs>
</svg>
