<svg width="488" height="598" viewBox="0 0 488 598" fill="none" xmlns="http://www.w3.org/2000/svg">
<path d="M335.734 277.057H332.291V249.397C332.277 241.147 329.242 233.155 323.701 226.784C318.161 220.413 310.458 216.055 301.903 214.453V189.117C301.903 188.385 301.748 187.659 301.448 186.984L301.075 160.598C301.001 155.346 299.427 150.211 296.521 145.736C293.615 141.261 289.484 137.612 284.566 135.176C279.649 132.74 274.126 131.607 268.583 131.898C263.041 132.188 257.684 133.89 253.08 136.825L218.577 158.82C218.189 153.734 216.393 148.834 213.371 144.612C210.349 140.39 206.206 136.995 201.359 134.766C196.511 132.538 191.13 131.555 185.754 131.916C180.378 132.277 175.197 133.97 170.732 136.825L139.984 156.426C139.068 155.817 137.982 155.477 136.863 155.45H49.3243C39.6084 155.461 30.2934 159.117 23.4228 165.617C16.5522 172.117 12.6868 180.931 12.6746 190.124V396.453C12.6858 405.903 16.6579 414.963 23.7195 421.645C30.781 428.327 40.3555 432.086 50.3426 432.098H294.624C304.611 432.086 314.185 428.327 321.246 421.645C328.308 414.963 332.28 405.903 332.291 396.454V368.797H335.734C342.64 368.789 349.261 366.189 354.145 361.568C359.028 356.947 361.775 350.682 361.783 344.147V301.704C361.774 295.17 359.027 288.905 354.144 284.285C349.26 279.664 342.64 277.065 335.734 277.057ZM259.6 145.985C262.459 144.161 265.786 143.103 269.228 142.922C272.671 142.741 276.101 143.445 279.155 144.958C282.209 146.471 284.775 148.738 286.579 151.517C288.383 154.297 289.359 157.487 289.403 160.749L290.152 213.757H153.287L259.6 145.985ZM177.251 145.985C180.114 144.159 183.445 143.1 186.891 142.921C190.338 142.742 193.772 143.45 196.828 144.969C199.884 146.487 202.448 148.761 204.249 151.547C206.049 154.334 207.019 157.53 207.054 160.796L207.18 166.085L132.399 213.757H70.9384L177.251 145.985ZM49.3243 166.494H124.19L50.0495 213.757H49.3243C46.0408 213.762 42.7883 213.155 39.753 211.97C36.7178 210.785 33.9593 209.045 31.6354 206.85C29.3115 204.655 27.4679 202.048 26.21 199.178C24.9521 196.309 24.3046 193.232 24.3046 190.125C24.3046 187.019 24.9521 183.942 26.21 181.072C27.4679 178.203 29.3115 175.596 31.6354 173.401C33.9593 171.206 36.7178 169.466 39.753 168.281C42.7883 167.096 46.0408 166.488 49.3243 166.494ZM320.619 396.453C320.612 402.975 317.87 409.227 312.997 413.839C308.124 418.451 301.516 421.045 294.624 421.054H50.3426C43.4502 421.045 36.8426 418.451 31.9693 413.839C27.096 409.227 24.3547 402.975 24.3468 396.453V215.354C31.0939 221.403 40.0299 224.783 49.3246 224.801H294.624C301.516 224.808 308.123 227.402 312.997 232.013C317.87 236.624 320.611 242.876 320.619 249.397V277.057H204.957C198.05 277.063 191.427 279.662 186.542 284.283C181.657 288.903 178.909 295.169 178.9 301.704V344.146C178.908 350.682 181.656 356.949 186.541 361.57C191.426 366.191 198.049 368.791 204.957 368.797H320.619V396.453ZM350.11 344.147C350.106 347.754 348.59 351.212 345.895 353.763C343.2 356.313 339.545 357.749 335.733 357.754H204.957C201.144 357.75 197.487 356.316 194.791 353.765C192.094 351.214 190.577 347.755 190.572 344.147V301.704C190.578 298.097 192.095 294.639 194.792 292.088C197.488 289.538 201.144 288.104 204.957 288.101H335.734C339.545 288.106 343.199 289.54 345.894 292.09C348.589 294.641 350.106 298.098 350.111 301.704L350.11 344.147Z" fill="black"/>
<path d="M242.959 300.493C238.269 300.493 233.685 301.808 229.785 304.273C225.886 306.738 222.847 310.242 221.052 314.341C219.257 318.441 218.787 322.952 219.702 327.304C220.617 331.656 222.875 335.653 226.191 338.791C229.507 341.929 233.732 344.065 238.332 344.931C242.931 345.797 247.699 345.352 252.031 343.654C256.364 341.956 260.067 339.08 262.672 335.39C265.277 331.701 266.668 327.363 266.667 322.926C266.66 316.978 264.16 311.277 259.715 307.071C255.271 302.866 249.244 300.5 242.959 300.493ZM242.959 334.318C240.578 334.319 238.25 333.651 236.27 332.399C234.29 331.148 232.747 329.369 231.836 327.288C230.924 325.207 230.685 322.917 231.149 320.707C231.614 318.497 232.76 316.468 234.443 314.874C236.127 313.281 238.271 312.196 240.607 311.756C242.942 311.316 245.362 311.541 247.562 312.403C249.762 313.265 251.643 314.725 252.966 316.598C254.289 318.471 254.995 320.673 254.996 322.926C254.992 325.945 253.722 328.84 251.466 330.976C249.21 333.111 246.15 334.314 242.959 334.318Z" fill="black"/>
<path d="M348.013 202.76L348.181 202.756C383.827 201.811 408.364 191.838 421.099 173.119C436.73 150.162 429.656 121.125 425.492 108.798L454.717 101.357C455.761 101.092 456.706 100.558 457.448 99.8146C458.19 99.0712 458.7 98.1475 458.92 97.1464C459.139 96.1452 459.061 95.106 458.693 94.1444C458.326 93.1829 457.683 92.3368 456.837 91.7005L388.44 40.2996C387.728 39.7645 386.894 39.3941 386.004 39.218C385.114 39.0419 384.192 39.0649 383.313 39.2852C382.434 39.5055 381.622 39.9171 380.941 40.487C380.26 41.057 379.728 41.7696 379.39 42.5681L346.532 120.097C346.123 121.061 346.011 122.115 346.207 123.137C346.403 124.16 346.899 125.109 347.64 125.876C348.38 126.643 349.334 127.197 350.392 127.475C351.45 127.752 352.569 127.742 353.621 127.445L383.021 119.133C389.663 142.224 388.508 160.411 379.571 173.245C375.801 178.213 371.012 182.411 365.489 185.589C359.967 188.768 353.824 190.861 347.428 191.745C345.941 191.889 344.568 192.568 343.595 193.642C342.621 194.715 342.12 196.102 342.195 197.515C342.27 198.928 342.915 200.26 343.998 201.236C345.081 202.212 346.518 202.758 348.013 202.76ZM389.214 179.461C400.932 162.766 402.057 139.604 392.558 110.617C392.187 109.492 391.446 108.508 390.442 107.809C389.439 107.11 388.226 106.733 386.98 106.731C386.414 106.73 385.851 106.807 385.309 106.961L361.866 113.587L387.307 53.5578L440.514 93.5375L416.35 99.6882C415.547 99.8935 414.799 100.259 414.157 100.759C413.515 101.26 412.993 101.885 412.627 102.592C412.261 103.299 412.059 104.072 412.034 104.859C412.009 105.646 412.162 106.429 412.482 107.155C412.634 107.511 427.908 142.781 411.259 167.184C404.555 176.408 394.712 183.178 383.371 186.367C385.535 184.237 387.491 181.925 389.214 179.461Z" fill="black"/>
<path d="M468.387 241.891C468.144 241.786 467.892 241.699 467.635 241.629C444.383 232.93 418.505 232.924 395.248 241.611C395.004 241.678 394.765 241.762 394.534 241.862C383.462 246.557 377.368 253.453 377.368 261.412V405.811C377.368 420.73 400.605 431.982 431.419 431.982C462.148 431.982 485.325 420.73 485.325 405.811V261.272C485.325 253.686 479.147 246.622 468.387 241.891ZM471.442 381.078C470.484 382.025 469.428 382.879 468.29 383.626C466.956 384.382 465.627 385.14 464.299 385.816C464.147 385.873 463.463 386.154 463.319 386.222C463.069 386.341 462.827 386.475 462.597 386.625C461.695 387.018 460.771 387.366 459.831 387.667C458.507 388.242 457.131 388.7 455.72 389.037C453.767 389.529 451.692 390.022 449.61 390.41C449.409 390.426 449.208 390.454 449.01 390.493C446.237 391.018 443.436 391.408 440.621 391.661C427.746 392.899 414.741 391.487 402.497 387.523C401.522 387.211 400.577 386.823 399.67 386.362C398.606 385.859 397.801 385.481 396.258 384.687C395.57 384.372 394.914 383.999 394.298 383.572C393.204 382.899 392.193 382.114 391.281 381.232C390.62 380.696 390.081 380.038 389.695 379.299C389.31 378.56 389.087 377.755 389.039 376.932V364.63C389.205 364.73 389.401 364.814 389.568 364.912C391.015 365.761 392.492 366.572 394.161 367.359C394.527 367.525 394.912 367.653 395.308 367.74C397.526 368.768 399.832 369.617 402.2 370.278C405.142 371.196 408.148 371.914 411.197 372.428C414.3 373.038 417.435 373.489 420.589 373.78C424.129 374.074 427.731 374.218 431.305 374.217L431.418 374.222C434.997 374.222 438.264 374.075 441.593 373.787C443.69 373.636 445.787 373.334 447.573 373.05C449.379 372.806 451.126 372.527 453.013 372.153C453.262 372.103 453.56 372.075 453.804 372.022C455.447 371.747 457.058 371.322 458.614 370.753C460.549 370.304 462.444 369.714 464.283 368.988C465.332 368.614 466.38 368.237 467.429 367.787C467.858 367.691 468.273 367.549 468.668 367.363C470.191 366.645 471.671 365.847 473.101 364.974C473.268 364.873 473.49 364.779 473.652 364.677V376.932C473.616 377.732 473.4 378.515 473.019 379.23C472.637 379.945 472.1 380.575 471.442 381.078ZM395.088 281.044C396.112 281.534 397.171 281.955 398.257 282.302C398.424 282.371 398.592 282.435 398.766 282.493L398.758 282.508C400.4 283.068 402.178 283.629 404.093 284.19L404.247 284.235L404.344 284.265C404.678 284.378 405.025 284.457 405.377 284.503C405.524 284.547 405.665 284.585 405.811 284.62L405.833 284.629L405.874 284.637C406.302 284.786 406.745 284.892 407.196 284.956L407.224 284.963L407.25 284.969L407.33 284.988C407.602 285.055 407.873 285.105 408.142 285.166C409.501 285.477 410.847 285.739 412.474 285.995L413.789 286.225C414.435 286.347 415.089 286.466 415.575 286.53C417.505 286.832 419.275 286.991 420.962 287.12C421.692 287.206 422.467 287.253 423.272 287.296C423.797 287.325 424.336 287.354 425.081 287.429C427.14 287.573 429.359 287.58 431.418 287.58L431.709 287.574C432.931 287.566 434.214 287.544 435.457 287.492C437.593 287.419 439.748 287.307 442.118 287.098C443.525 286.993 444.925 286.819 446.313 286.577C447.802 286.437 449.291 286.175 450.865 285.883C451.118 285.858 451.369 285.818 451.617 285.765L453.289 285.427C454.647 285.189 455.989 284.874 457.308 284.485C460.331 283.797 463.279 282.845 466.116 281.641C466.473 281.523 466.86 281.375 467.347 281.17C467.693 281.097 468.031 280.994 468.357 280.861C468.494 280.806 468.587 280.724 468.718 280.668C468.795 280.631 468.883 280.62 468.958 280.581C469.448 280.316 469.821 280.093 470.231 279.86C470.698 279.64 471.154 279.397 471.594 279.132C471.7 279.082 471.848 278.993 471.96 278.937C472.408 278.717 472.866 278.481 473.387 278.18C473.482 278.126 473.557 278.096 473.653 278.039V290.29C473.625 290.62 473.565 290.946 473.474 291.265L473.038 292.278C472.997 292.376 472.963 292.483 472.929 292.588L472.778 292.863C472.567 293.279 472.279 293.657 471.928 293.979C471.58 294.272 471.269 294.603 471.001 294.964C470.174 295.725 469.268 296.404 468.296 296.992L467.108 297.827C466.54 297.981 466 298.216 465.507 298.523C464.96 298.865 464.497 299.142 463.98 299.4C463.09 299.664 462.228 300.004 461.404 300.418L461.209 300.52C460.896 300.626 460.541 300.751 460.09 300.921L460.057 300.94L459.991 300.96C458.531 301.544 457.021 302.008 455.477 302.348C455.066 302.439 454.666 302.57 454.284 302.74C454.056 302.801 453.767 302.884 453.539 302.948C453.244 302.985 452.952 303.042 452.666 303.121C452.278 303.225 451.883 303.301 451.495 303.38C450.956 303.488 450.416 303.603 449.885 303.736L449.771 303.754C449.676 303.759 449.575 303.797 449.484 303.807L449.467 303.808L449.448 303.814C449.184 303.836 448.922 303.884 448.669 303.959C448.517 303.982 448.213 304.045 447.91 304.113C445.539 304.507 443.021 304.769 440.622 305.019C439.178 305.145 437.734 305.278 435.758 305.3C434.314 305.425 432.863 305.411 431.419 305.418C429.953 305.418 428.395 305.429 426.412 305.278C425.941 305.278 425.469 305.246 424.998 305.217C424.535 305.192 424.064 305.163 423.6 305.149C422.986 305.055 422.366 305.008 421.744 305.009L421.275 304.915C421.171 304.895 421.03 304.89 420.912 304.872C420.743 304.848 420.606 304.824 420.424 304.806L420.203 304.784C420.041 304.769 419.928 304.765 419.775 304.756L419.512 304.735C419.155 304.692 418.79 304.66 418.41 304.627C417.717 304.582 417.028 304.486 416.351 304.34C415.401 304.249 414.461 304.086 413.539 303.851C410.989 303.412 408.471 302.818 406.001 302.073C403.712 301.307 401.55 300.549 399.534 299.656C399.243 299.533 398.94 299.434 398.63 299.361C398.57 299.317 398.495 299.295 398.433 299.253C398.182 299.076 397.92 298.913 397.65 298.764C396.48 298.146 395.309 297.531 394.299 296.934C393.183 296.289 392.168 295.5 391.282 294.59C390.009 293.462 389.212 291.934 389.04 290.291V278.085C389.988 278.669 390.984 279.179 392.019 279.609C392.692 280.026 393.398 280.393 394.132 280.706C394.437 280.849 394.758 280.963 395.088 281.044ZM459.998 358.717C458.536 359.303 457.023 359.768 455.477 360.108L455.451 360.117C455.265 360.161 455.134 360.207 454.937 360.252C454.276 360.461 453.623 360.623 452.954 360.795L451.35 361.227C449.588 361.608 447.832 361.863 445.788 362.136C444.192 362.391 442.452 362.65 440.621 362.78C434.319 363.312 427.979 363.315 421.677 362.787C418.944 362.533 416.227 362.14 413.538 361.611C410.988 361.173 408.47 360.579 406.001 359.834C403.712 359.068 401.549 358.31 399.534 357.416C399.244 357.294 398.944 357.197 398.637 357.125C397.145 356.39 395.697 355.578 394.298 354.695C393.183 354.049 392.168 353.26 391.281 352.351C390.008 351.222 389.211 349.694 389.04 348.051V335.846C389.968 336.418 390.944 336.919 391.958 337.341C392.06 337.412 392.156 337.428 392.259 337.492C392.993 337.957 393.776 338.35 394.594 338.664C394.773 338.732 394.955 338.789 395.142 338.833C396.112 339.303 397.121 339.697 398.158 340.012C400.53 340.972 402.983 341.74 405.491 342.309C405.704 342.381 405.902 342.435 406.061 342.475C406.272 342.551 406.488 342.614 406.707 342.665C407.368 342.833 408.041 342.958 408.721 343.039C409.553 343.266 410.401 343.44 411.259 343.56C417.901 344.778 424.653 345.374 431.419 345.34C433.219 345.34 435.005 345.333 436.29 345.203C438.083 345.203 439.891 345.056 442.118 344.858C443.524 344.752 444.924 344.578 446.312 344.337C447.802 344.197 449.291 343.934 450.864 343.643L451.123 343.611C452.423 343.417 453.709 343.149 454.975 342.809C455.792 342.665 456.599 342.477 457.392 342.245C458.205 342.077 459.007 341.863 459.793 341.605L460.416 341.411C461.684 341.092 462.924 340.681 464.124 340.181C464.943 339.98 465.732 339.683 466.472 339.297C467.035 339.117 467.643 338.894 468.243 338.664C468.521 338.558 468.788 338.428 469.041 338.276C469.817 337.927 470.562 337.518 471.267 337.054C472.038 336.736 472.774 336.347 473.463 335.892L473.653 335.772V348.051C473.616 348.852 473.399 349.637 473.017 350.353C472.634 351.069 472.095 351.7 471.435 352.203C470.421 353.205 469.301 354.105 468.091 354.889C466.883 355.71 465.61 356.443 464.284 357.081C463.901 357.179 463.529 357.313 463.174 357.48C462.139 357.944 461.079 358.357 459.998 358.717ZM389.04 306.967C389.971 307.541 390.95 308.043 391.965 308.47C392.08 308.548 392.177 308.562 392.292 308.633C393.025 309.091 393.804 309.48 394.617 309.793C394.859 309.881 395.108 309.951 395.362 310.002C397.563 311.021 399.851 311.863 402.201 312.518C405.005 313.403 407.876 314.089 410.788 314.571C411.909 314.879 413.059 315.082 414.223 315.178C415.259 315.408 416.314 315.558 417.376 315.627L418.204 315.706C418.657 315.781 419.133 315.843 419.975 315.936C420.348 316.006 420.727 316.041 421.107 316.041C421.245 316.041 421.371 315.987 421.507 315.978C422.419 316.134 423.342 316.221 424.268 316.239C424.983 316.282 425.689 316.31 425.879 316.3C429.342 316.595 432.825 316.602 436.289 316.321C438.083 316.321 439.891 316.174 441.791 316.008C443.754 315.802 445.779 315.557 447.906 315.252C448.476 315.173 449.083 315.128 449.64 315.038C449.952 315.009 450.157 314.966 450.149 314.926C450.788 314.926 451.422 314.827 452.026 314.632C452.213 314.589 452.438 314.526 452.662 314.459L452.786 314.434C453.166 314.33 453.554 314.258 453.941 314.179C454.39 314.085 454.838 313.992 455.286 313.888C456.475 313.63 457.649 313.316 458.805 312.949C460.513 312.542 462.191 312.026 463.828 311.407C463.901 311.391 463.942 311.367 464.013 311.35C464.544 311.222 465.066 311.062 465.575 310.871C465.995 310.733 466.395 310.547 466.768 310.318C467.247 310.156 467.749 309.973 468.242 309.782C468.513 309.679 468.772 309.553 469.018 309.405C469.804 309.056 470.556 308.644 471.267 308.172C472.037 307.854 472.772 307.467 473.463 307.014L473.653 306.893V319.172C473.624 319.509 473.562 319.843 473.469 320.17L473.037 321.156C472.996 321.253 472.963 321.36 472.93 321.464L472.775 321.748C472.566 322.159 472.282 322.532 471.936 322.85C471.583 323.146 471.269 323.482 471.001 323.849C470.161 324.611 469.245 325.294 468.265 325.887L467.103 326.703C466.537 326.859 465.999 327.094 465.507 327.401C464.9 327.791 464.268 328.145 463.615 328.461L463.524 328.508C463.2 328.618 462.883 328.744 462.574 328.885C461.944 328.98 461.347 329.217 460.834 329.576C460.527 329.647 460.227 329.743 459.937 329.863C459.121 330.221 458.274 330.515 457.406 330.74L456.115 331.125C455.781 331.247 455.438 331.345 455.089 331.419C454.628 331.494 454.176 331.607 453.736 331.757C453.408 331.852 453.073 331.923 452.733 331.97C452.574 331.998 452.103 332.095 451.951 332.135C451.16 332.347 450.256 332.573 450.15 332.624C449.731 332.632 449.314 332.674 448.903 332.75C447.65 332.987 446.396 333.231 444.595 333.425C443.425 333.645 442.148 333.756 440.621 333.9C439.177 334.026 437.733 334.159 435.773 334.18C434.473 334.288 433.174 334.295 431.875 334.295C425.657 334.372 419.448 333.836 413.348 332.696C412.915 332.647 412.486 332.569 412.065 332.462C411.289 332.176 410.471 332.003 409.641 331.951L409.291 331.858C409.057 331.777 408.819 331.708 408.577 331.653C406.429 331.174 404.328 330.52 402.3 329.697C401.485 329.456 400.698 329.136 399.952 328.741C399.542 328.53 399.105 328.368 398.652 328.259L398.553 328.205C398.266 327.998 397.964 327.81 397.649 327.641C396.479 327.023 395.309 326.408 394.291 325.804C393.177 325.164 392.164 324.378 391.282 323.471C390.621 322.935 390.081 322.277 389.696 321.538C389.311 320.799 389.088 319.994 389.04 319.171L389.04 306.967ZM398.713 252.198C399.004 252.114 399.289 252.011 399.564 251.888C420.045 244.224 442.842 244.229 463.319 251.903C463.545 252.003 463.779 252.087 464.018 252.155C469.975 254.88 473.653 258.345 473.653 261.272H473.683C473.682 261.321 473.653 261.362 473.653 261.412C473.624 261.749 473.562 262.083 473.469 262.409L473.038 263.396C472.997 263.493 472.964 263.599 472.93 263.704L472.776 263.987C472.566 264.398 472.282 264.771 471.936 265.089C471.666 265.315 471.419 265.564 471.199 265.833C470.861 266.11 470.544 266.408 470.249 266.725L469.284 267.404C468.798 267.735 468.319 268.066 467.886 268.396C467.555 268.627 467.207 268.835 466.845 269.018C466.374 269.173 465.924 269.382 465.507 269.64C464.998 269.96 464.55 270.226 464.048 270.507C463.896 270.553 463.752 270.6 463.608 270.658L462.574 271.125C462.214 271.212 461.863 271.332 461.526 271.481C459.117 272.513 456.607 273.321 454.033 273.893C453.013 274.191 451.975 274.429 450.925 274.609L449.459 274.907C449.269 274.928 449.071 274.957 448.904 274.99C447.65 275.227 446.396 275.471 444.595 275.665C443.425 275.885 442.148 275.996 440.621 276.14C437.551 276.406 434.633 276.535 431.419 276.535C429.549 276.535 427.726 276.543 426.176 276.435C425.423 276.352 424.671 276.309 423.941 276.269C423.41 276.241 422.9 276.219 422.179 276.136C420.568 276.011 419.086 275.888 417.361 275.619L416.077 275.392C415.401 275.266 414.724 275.141 414.253 275.079C412.802 274.863 411.364 274.575 409.945 274.217C409.854 274.195 409.755 274.174 409.648 274.156C409.302 274.044 408.947 273.956 408.587 273.893L408.463 273.861L408.43 273.854L408.341 273.832C408.182 273.796 408.022 273.764 407.855 273.735L407.779 273.71C406.084 273.217 404.504 272.725 403.052 272.229C402.809 272.115 402.558 272.018 402.3 271.937C401.485 271.696 400.698 271.376 399.952 270.981C399.542 270.769 399.105 270.608 398.653 270.499L398.553 270.445C398.266 270.238 397.964 270.05 397.65 269.881C396.479 269.263 395.309 268.648 394.291 268.044C393.177 267.404 392.164 266.618 391.282 265.711C390.604 265.158 390.055 264.478 389.669 263.713C389.283 262.949 389.069 262.118 389.04 261.271C389.04 258.299 392.725 254.851 398.713 252.198ZM473.653 405.811C473.653 411.98 457.202 420.938 431.419 420.938C405.552 420.938 389.04 411.98 389.04 405.811V393.513L389.19 393.59C389.784 393.964 390.413 394.288 391.069 394.555C392.193 395.166 393.166 395.63 394.177 396.101C395.517 396.785 396.912 397.369 398.348 397.849C401.309 398.898 404.337 399.769 407.414 400.456C408.108 400.615 408.819 400.742 409.526 400.886C412.158 401.431 414.873 401.873 417.673 402.211C418.406 402.299 419.123 402.392 419.864 402.466C422.857 402.765 425.917 402.947 429.045 403.012C429.559 403.023 430.058 403.065 430.573 403.069C430.859 403.071 431.131 403.101 431.419 403.101C434.998 403.101 438.265 402.957 441.708 402.659C444.861 402.375 447.863 401.958 450.857 401.404C451.031 401.386 451.206 401.364 451.373 401.336C453.881 400.886 456.381 400.3 458.645 399.729C460.512 399.295 462.331 398.696 464.079 397.938C465.554 397.476 466.992 396.911 468.38 396.249L468.372 396.238C468.536 396.162 468.696 396.076 468.851 395.983C469.155 395.86 469.603 395.67 469.762 395.591L470.644 395.138C471.67 394.613 472.658 394.103 473.653 393.517L473.653 405.811Z" fill="black"/>
</svg>
