<svg width="537" height="535" viewBox="0 0 537 535" fill="none" xmlns="http://www.w3.org/2000/svg">
<path d="M289.062 1.91638C284.615 1.91638 281.007 5.51831 281.007 9.96838V249.762C281.007 254.212 284.615 257.814 289.062 257.814H528.945C533.391 257.814 537 254.212 537 249.762C537 113.104 425.777 1.91638 289.062 1.91638ZM520.686 241.71H297.117V18.2297C418.543 22.4007 516.513 120.329 520.686 241.71Z" fill="black"/>
<path d="M487.827 278.986H255.993V47.2438C255.993 42.7937 252.39 39.1918 247.938 39.1918C151.719 39.1918 68.1883 94.305 27.1078 174.567C26.9735 174.782 26.8178 174.981 26.6996 175.212C26.5922 175.415 26.5439 175.63 26.458 175.84C9.57471 209.309 0 247.062 0 287.038C0 359.506 31.2802 424.802 81.044 470.162C81.1837 470.307 81.2481 470.5 81.3985 470.645C81.581 470.806 81.8066 470.865 81.9945 471.01C116.341 501.994 159.387 523.487 206.965 531.437C207.175 531.491 207.368 531.566 207.588 531.604C207.781 531.636 207.969 531.631 208.163 531.652C221.12 533.751 234.395 534.884 247.938 534.884C384.653 534.884 495.877 423.702 495.877 287.038C495.882 282.593 492.273 278.986 487.827 278.986ZM98.3838 463.908L235.544 312.691L202.293 514.244C163.227 506.412 127.704 488.719 98.3838 463.908ZM239.883 55.4998V273.94L44.8717 175.373C83.1652 106.066 155.923 58.3824 239.883 55.4998ZM16.11 287.038C16.11 252.296 23.8428 219.347 37.6061 189.743L234.873 289.453L86.457 453.081C43.1104 410.953 16.11 352.103 16.11 287.038ZM247.938 518.78C237.859 518.78 227.94 518.06 218.194 516.81L254.774 295.09H479.562C475.299 419.15 373.075 518.78 247.938 518.78Z" fill="black"/>
</svg>
