<svg width="330" height="349" viewBox="0 0 330 349" fill="none" xmlns="http://www.w3.org/2000/svg">
<path d="M158.397 237.541C158.397 241.189 161.353 244.149 164.997 244.149C168.64 244.149 171.597 241.189 171.597 237.541V221.652H182.167C199.538 221.652 213.668 207.508 213.668 190.122C213.668 172.733 199.538 158.585 182.167 158.585H171.597V121.964H202.854C206.497 121.964 209.454 119.003 209.454 115.356C209.454 111.708 206.497 108.748 202.854 108.748H171.597V92.849C171.597 89.2014 168.64 86.241 164.997 86.241C161.353 86.241 158.397 89.2014 158.397 92.849V108.748H147.85C130.475 108.748 116.345 122.892 116.345 140.278C116.345 157.66 130.475 171.801 147.85 171.801H158.397V208.436H122.945C119.302 208.436 116.345 211.397 116.345 215.044C116.345 218.692 119.302 221.652 122.945 221.652H158.397V237.541ZM147.85 121.964H158.397V158.585H147.85C137.755 158.585 129.545 150.372 129.545 140.278C129.545 130.178 137.755 121.964 147.85 121.964ZM182.167 208.436H171.597V171.801H182.167C192.258 171.801 200.468 180.018 200.468 190.122C200.468 200.222 192.258 208.436 182.167 208.436Z" fill="black"/>
<path d="M33.7854 84.7806C33.7854 84.8401 33.7986 84.893 33.8052 84.9491C33.8349 85.2994 33.8844 85.6463 33.9735 85.9899C33.9999 86.1022 34.0428 86.208 34.0758 86.3203C34.1616 86.5978 34.254 86.8721 34.3761 87.1397C34.452 87.3082 34.5477 87.4635 34.6368 87.6221C34.749 87.817 34.8546 88.0119 34.9833 88.197C35.1351 88.4117 35.3133 88.6067 35.4849 88.8016C35.5872 88.9172 35.6829 89.0329 35.7951 89.1419C36.0393 89.3798 36.3165 89.5879 36.6003 89.7895C36.6597 89.8258 36.6993 89.8754 36.7554 89.9117C36.7686 89.9183 36.7851 89.9216 36.7983 89.9316C36.8808 89.9844 36.9501 90.0538 37.0359 90.1067L89.8953 121.062C90.9414 121.676 92.0898 121.967 93.2217 121.967C95.4921 121.967 97.6965 120.798 98.9274 118.693C100.769 115.541 99.7062 111.497 96.5613 109.653L49.8267 82.2828C76.5039 45.1359 119.031 23.128 164.997 23.128C168.64 23.128 171.597 20.1676 171.597 16.52C171.597 12.8724 168.64 9.91199 164.997 9.91199C112.233 9.91199 63.5679 36.4035 34.815 80.7729C34.254 81.6385 33.9438 82.5835 33.825 83.5449V83.5581C33.7722 83.9678 33.7557 84.3742 33.7854 84.7806Z" fill="black"/>
<path d="M115.602 298.424C60.2745 277.86 23.1 224.318 23.1 165.193C23.1 154.495 24.2979 143.823 26.6607 133.478C27.4725 129.92 25.2483 126.378 21.6942 125.562C18.1533 124.749 14.6025 126.973 13.7874 130.531C11.2068 141.844 9.90002 153.507 9.90002 165.193C9.90002 229.816 50.5296 288.337 111.009 310.814C111.764 311.095 112.543 311.227 113.306 311.227C115.985 311.227 118.506 309.578 119.493 306.915C120.764 303.499 119.018 299.696 115.602 298.424Z" fill="black"/>
<path d="M226.03 22.4176C226.001 22.4044 225.977 22.3846 225.951 22.3714C225.915 22.3549 225.878 22.3483 225.839 22.3317C225.68 22.2624 225.525 22.1897 225.367 22.1236C222.001 20.6963 218.137 22.2723 216.718 25.6324C216.431 26.3098 216.299 27.0036 216.242 27.6974L193.796 76.6429C192.275 79.9601 193.727 83.882 197.036 85.4051C197.931 85.8181 198.868 86.0097 199.789 86.0097C202.287 86.0097 204.676 84.5791 205.788 82.1573L226.439 37.1271C275.537 60.7308 306.9 110.264 306.9 165.193C306.9 241.321 246.791 303.638 171.597 307.103V269.065C171.597 265.417 168.64 262.457 164.997 262.457C161.354 262.457 158.397 265.417 158.397 269.065V313.88C158.397 317.528 161.354 320.488 164.997 320.488C250.52 320.488 320.1 250.823 320.1 165.193C320.1 102.896 283.193 46.9399 226.03 22.4176Z" fill="black"/>
</svg>
