<svg width="881" height="813" viewBox="0 0 881 813" fill="none" xmlns="http://www.w3.org/2000/svg">
<g clip-path="url(#clip0_1_43)">
<path fill-rule="evenodd" clip-rule="evenodd" d="M584.309 535.687H296.689C292.887 535.687 289.806 532.466 289.806 528.491V227.772C289.806 223.797 292.887 220.576 296.689 220.576C300.49 220.576 303.571 223.797 303.571 227.772V521.295H584.309C588.11 521.295 591.191 524.517 591.191 528.491C591.191 532.466 588.11 535.687 584.309 535.687Z" fill="black"/>
<path fill-rule="evenodd" clip-rule="evenodd" d="M320.596 263.761H296.692C292.89 263.761 289.809 260.539 289.809 256.565C289.809 252.59 292.89 249.369 296.692 249.369H320.596C324.397 249.369 327.478 252.59 327.478 256.565C327.478 260.539 324.396 263.761 320.596 263.761Z" fill="black"/>
<path fill-rule="evenodd" clip-rule="evenodd" d="M320.596 308.349H296.692C292.89 308.349 289.809 305.129 289.809 301.154C289.809 297.179 292.89 293.958 296.692 293.958H320.596C324.397 293.958 327.478 297.179 327.478 301.154C327.478 305.129 324.396 308.349 320.596 308.349Z" fill="black"/>
<path fill-rule="evenodd" clip-rule="evenodd" d="M320.596 352.938H296.692C292.89 352.938 289.809 349.717 289.809 345.742C289.809 341.767 292.89 338.546 296.692 338.546H320.596C324.397 338.546 327.478 341.767 327.478 345.742C327.478 349.717 324.396 352.938 320.596 352.938Z" fill="black"/>
<path fill-rule="evenodd" clip-rule="evenodd" d="M320.596 397.527H296.692C292.89 397.527 289.809 394.306 289.809 390.331C289.809 386.357 292.89 383.135 296.692 383.135H320.596C324.397 383.135 327.478 386.357 327.478 390.331C327.478 394.306 324.396 397.527 320.596 397.527Z" fill="black"/>
<path fill-rule="evenodd" clip-rule="evenodd" d="M320.596 442.116H296.692C292.89 442.116 289.809 438.895 289.809 434.92C289.809 430.945 292.89 427.724 296.692 427.724H320.596C324.397 427.724 327.478 430.945 327.478 434.92C327.478 438.895 324.396 442.116 320.596 442.116Z" fill="black"/>
<path fill-rule="evenodd" clip-rule="evenodd" d="M320.596 486.702H296.692C292.89 486.702 289.809 483.481 289.809 479.506C289.809 475.532 292.89 472.31 296.692 472.31H320.596C324.397 472.31 327.478 475.532 327.478 479.506C327.478 483.481 324.396 486.702 320.596 486.702Z" fill="black"/>
<path fill-rule="evenodd" clip-rule="evenodd" d="M396.136 535.687C392.334 535.687 389.253 532.466 389.253 528.491V391.527H365.535V528.491C365.535 532.466 362.454 535.687 358.652 535.687C354.851 535.687 351.77 532.466 351.77 528.491V384.331C351.77 380.356 354.851 377.135 358.652 377.135H396.136C399.938 377.135 403.018 380.356 403.018 384.331V528.491C403.016 532.466 399.936 535.687 396.136 535.687Z" fill="black"/>
<path fill-rule="evenodd" clip-rule="evenodd" d="M477.983 535.687C474.182 535.687 471.101 532.466 471.101 528.491V360.336L447.385 360.337V528.492C447.385 532.466 444.303 535.688 440.503 535.688C436.703 535.688 433.62 532.466 433.62 528.492V353.141C433.62 349.167 436.701 345.945 440.503 345.945H477.985C481.787 345.945 484.868 349.167 484.868 353.141V528.492C484.866 532.466 481.785 535.687 477.983 535.687Z" fill="black"/>
<path fill-rule="evenodd" clip-rule="evenodd" d="M559.834 535.687C556.032 535.687 552.951 532.466 552.951 528.491V318.747H529.233V528.491C529.233 532.466 526.153 535.687 522.351 535.687C518.549 535.687 515.468 532.466 515.468 528.491V311.551C515.468 307.576 518.549 304.355 522.351 304.355H559.834C563.636 304.355 566.717 307.576 566.717 311.551V528.491C566.717 532.466 563.635 535.687 559.834 535.687Z" fill="black"/>
<path fill-rule="evenodd" clip-rule="evenodd" d="M374.711 352.339C373.132 352.339 371.543 351.773 370.246 350.616C367.355 348.038 367.011 343.495 369.48 340.471L418.435 280.488C420.163 278.37 422.903 277.484 425.473 278.215L475.097 292.298L518.167 245.764C520.816 242.906 525.171 242.837 527.899 245.598C530.631 248.362 530.702 252.917 528.06 255.773L482.164 305.359C480.418 307.245 477.83 307.982 475.414 307.301L426.075 293.298L379.949 349.815C378.59 351.481 376.656 352.339 374.711 352.339Z" fill="black"/>
<path fill-rule="evenodd" clip-rule="evenodd" d="M742.014 653.56H138.986C123.079 653.56 110.139 640.031 110.139 623.399V210.033C110.139 193.401 123.079 179.873 138.986 179.873H742.014C757.921 179.873 770.862 193.404 770.862 210.033V623.399C770.86 640.03 757.921 653.56 742.014 653.56ZM138.986 194.264C130.67 194.264 123.904 201.337 123.904 210.033V623.399C123.904 632.095 130.67 639.169 138.986 639.169H742.014C750.331 639.169 757.097 632.095 757.097 623.399V210.033C757.097 201.337 750.331 194.264 742.014 194.264H138.986Z" fill="black"/>
<path fill-rule="evenodd" clip-rule="evenodd" d="M378.593 741.246C377.425 741.246 376.242 740.935 375.158 740.279C371.867 738.292 370.737 733.893 372.638 730.45C400.923 679.228 374.147 651.864 373.873 651.595C371.109 648.866 370.985 644.312 373.595 641.423C376.206 638.531 380.561 638.404 383.324 641.134C384.764 642.556 418.222 676.682 384.559 737.646C383.286 739.955 380.972 741.246 378.593 741.246Z" fill="black"/>
<path fill-rule="evenodd" clip-rule="evenodd" d="M502.408 741.246C500.015 741.246 497.691 739.939 496.421 737.612C463.224 676.694 496.221 642.588 497.642 641.166C500.39 638.418 504.745 638.52 507.375 641.389C509.994 644.249 509.907 648.782 507.19 651.533C506.021 652.742 480.755 679.794 508.38 730.486C510.264 733.939 509.11 738.334 505.808 740.3C504.733 740.94 503.562 741.246 502.408 741.246Z" fill="black"/>
<path fill-rule="evenodd" clip-rule="evenodd" d="M582.772 741.244H298.231C294.429 741.244 291.348 738.024 291.348 734.049C291.348 730.074 294.429 726.853 298.231 726.853H582.772C586.573 726.853 589.654 730.074 589.654 734.049C589.654 738.024 586.573 741.244 582.772 741.244Z" fill="black"/>
<path fill-rule="evenodd" clip-rule="evenodd" d="M763.978 584.66H117.021C113.219 584.66 110.139 581.439 110.139 577.464C110.139 573.489 113.219 570.268 117.021 570.268H763.978C767.779 570.268 770.86 573.489 770.86 577.464C770.86 581.439 767.781 584.66 763.978 584.66Z" fill="black"/>
</g>
<defs>
<clipPath id="clip0_1_43">
<rect width="881" height="813" fill="white"/>
</clipPath>
</defs>
</svg>
