<svg width="452" height="460" viewBox="0 0 452 460" fill="none" xmlns="http://www.w3.org/2000/svg">
<path d="M307.31 208.44C304.05 202.77 312.66 197.78 315.95 203.44L332.79 232.58L384.22 181.2C388.87 176.55 395.93 183.61 391.28 188.28L335.28 244.28C334.74 244.821 334.084 245.231 333.361 245.478C332.638 245.726 331.867 245.804 331.109 245.708C330.351 245.611 329.626 245.342 328.988 244.921C328.35 244.5 327.817 243.939 327.43 243.28L307.31 208.44ZM246.93 212.75C246.924 200.338 249.16 188.027 253.53 176.41C242.79 161.52 233.01 148.23 226.6 133.35H149.81C143.81 147.58 134.81 160.62 124.92 174.99C102.56 207.39 75.43 246.73 70.36 321.11C72.6605 323.22 74.5344 325.753 75.88 328.57L122.29 302.35C126.542 299.866 131.329 298.441 136.247 298.194C141.165 297.947 146.07 298.885 150.55 300.93L214.55 329.22C228.55 335.4 243.15 346.14 244.85 360.4C245.296 363.95 244.849 367.556 243.55 370.89L310.98 345.1C310.965 332.368 310.221 319.647 308.75 307C290.382 299.015 274.747 285.838 263.764 269.089C252.782 252.34 246.931 232.748 246.93 212.72V212.75ZM258.22 165.86C289.94 104.09 372.94 90.66 422.35 140.09C438.58 156.334 448.903 177.544 451.673 200.339C454.442 223.134 449.499 246.2 437.631 265.857C425.763 285.515 407.654 300.632 386.192 308.798C364.731 316.963 341.153 317.707 319.22 310.91C320.24 320.91 320.817 331.03 320.95 341.27L330.87 337.47C375.55 320.35 396.8 363.29 351.79 386.79L218.5 456.36C211.82 459.93 204.06 460.916 196.7 459.13L100.89 436.74L78.66 435.92C78.4507 442.297 75.7802 448.344 71.2087 452.795C66.6372 457.245 60.5199 459.752 54.14 459.79L25 459.9C18.4752 459.903 12.2148 457.322 7.58795 452.721C2.96111 448.12 0.344368 441.875 0.309999 435.35L0 339.35C0.00784775 332.841 2.59086 326.6 7.18498 321.989C11.7791 317.378 18.0111 314.772 24.52 314.74L53.66 314.62C56.0587 314.617 58.4457 314.954 60.75 315.62C66.81 241.62 94.14 202.04 116.7 169.33C125.38 156.77 133.29 145.33 138.87 133.33C132.38 133.33 127.33 131.71 122.87 127.2C120.829 125.165 119.233 122.73 118.181 120.047C117.129 117.364 116.646 114.492 116.76 111.612C116.875 108.733 117.585 105.909 118.847 103.318C120.109 100.727 121.894 98.4259 124.09 96.56C109.26 83.92 118.42 59.82 137.61 59.82H139.76C133.51 42.47 124.22 25 113.53 7.6C113.069 6.8434 112.818 5.97802 112.802 5.09239C112.785 4.20676 113.004 3.33267 113.437 2.55956C113.869 1.78645 114.499 1.14207 115.262 0.692343C116.025 0.242615 116.894 0.00368573 117.78 0H262.72C263.649 0 264.559 0.258573 265.349 0.746746C266.139 1.23492 266.777 1.9334 267.192 2.76393C267.607 3.59446 267.783 4.52422 267.7 5.44903C267.616 6.37384 267.277 7.25715 266.72 8C255.84 23.76 244.47 43.77 238.01 59.84H242.94C262.13 59.84 271.29 83.94 256.46 96.58C271.29 109.25 262.13 133.35 242.94 133.35H237.58C242.8 144.15 250.11 154.64 258.22 165.86ZM284.1 147.15C271.125 160.124 262.289 176.654 258.708 194.65C255.128 212.646 256.965 231.299 263.986 248.251C271.007 265.203 282.898 279.692 298.154 289.886C313.41 300.08 331.346 305.522 349.695 305.522C368.044 305.522 385.98 300.08 401.236 289.886C416.492 279.692 428.383 265.203 435.404 248.251C442.425 231.299 444.262 212.646 440.682 194.65C437.101 176.654 428.265 160.124 415.29 147.15C406.676 138.535 396.45 131.702 385.195 127.039C373.94 122.377 361.877 119.977 349.695 119.977C337.513 119.977 325.45 122.377 314.195 127.039C302.94 131.702 292.714 138.535 284.1 147.15ZM78.35 338.6V339.17L78.63 425.94L102.76 426.94L198.96 449.45C203.993 450.706 209.313 450.039 213.88 447.58L347.16 378C380.92 360.37 367.43 334.17 334.4 346.82L225.58 388.47C224.448 388.894 223.202 388.894 222.07 388.47L142.58 359.16C136.4 356.9 139.86 347.51 146.01 349.78L223.37 378.3C247.15 364.38 230.23 347.06 210.5 338.3L146.5 310.01C143.437 308.592 140.077 307.936 136.706 308.098C133.335 308.26 130.053 309.235 127.14 310.94L78.35 338.6ZM53.66 324.6L24.52 324.69C20.6438 324.73 16.9396 326.296 14.2117 329.051C11.4838 331.805 9.95243 335.524 9.95 339.4L10.29 435.4C10.3269 439.277 11.893 442.983 14.6476 445.711C17.4023 448.44 21.1228 449.97 25 449.97L54.14 449.89C58.0188 449.853 61.7259 448.286 64.4547 445.529C67.1834 442.772 68.7128 439.049 68.71 435.17L68.37 339.22C68.3515 335.333 66.7929 331.611 64.0356 328.871C61.2784 326.13 57.5474 324.595 53.66 324.6ZM137.57 123.34H242.93C245.813 123.34 248.578 122.195 250.616 120.156C252.655 118.118 253.8 115.353 253.8 112.47C253.8 109.587 252.655 106.822 250.616 104.784C248.578 102.745 245.813 101.6 242.93 101.6H137.57C134.687 101.6 131.922 102.745 129.884 104.784C127.845 106.822 126.7 109.587 126.7 112.47C126.7 115.353 127.845 118.118 129.884 120.156C131.922 122.195 134.687 123.34 137.57 123.34ZM150.27 59.84H227.27C233.58 43.15 242.96 26.25 253.42 10H126.6C136.15 26.24 144.74 43.31 150.27 59.83V59.84ZM242.93 69.84H137.57C134.687 69.84 131.922 70.9852 129.884 73.0238C127.845 75.0623 126.7 77.8271 126.7 80.71C126.7 83.5929 127.845 86.3577 129.884 88.3962C131.922 90.4348 134.687 91.58 137.57 91.58H242.93C245.813 91.58 248.578 90.4348 250.616 88.3962C252.655 86.3577 253.8 83.5929 253.8 80.71C253.8 77.8271 252.655 75.0623 250.616 73.0238C248.578 70.9852 245.813 69.84 242.93 69.84ZM153.33 250.21C152.62 243.66 162.54 242.58 163.25 249.1C164.84 263.25 193.52 270.62 210.08 259.31C214.53 256.31 217.28 252.25 217.28 247.94C217.28 235.53 203.36 233.26 189.44 231.02C171.33 228.07 153.21 225.12 153.21 204.2C153.21 188.61 169.74 179.15 185.08 177.61V167.81C185.079 167.126 185.218 166.448 185.489 165.82C185.76 165.191 186.157 164.625 186.656 164.156C187.154 163.688 187.744 163.326 188.388 163.095C189.032 162.863 189.717 162.766 190.4 162.81C191.065 162.81 191.724 162.942 192.337 163.2C192.95 163.457 193.506 163.835 193.971 164.31C194.437 164.785 194.803 165.348 195.048 165.966C195.294 166.584 195.413 167.245 195.4 167.91L195.15 177.58C210.6 179.02 227.29 188.52 227.29 204.19C227.29 210.8 217.29 210.8 217.29 204.19C217.29 189.54 187.64 181.12 170.4 192.86C165.95 195.86 163.2 199.91 163.2 204.19C163.2 216.64 177.12 218.91 191.07 221.14C209.18 224.14 227.29 227.04 227.29 247.93C227.29 263.58 210.71 273.05 195.35 274.58L195.09 284.36C195.09 290.96 185.09 290.96 185.09 284.36V274.55C170.63 273.1 154.98 264.66 153.34 250.2L153.33 250.21Z" fill="black"/>
</svg>
